G04 MADE WITH FRITZING*
G04 WWW.FRITZING.ORG*
G04 DOUBLE SIDED*
G04 HOLES PLATED*
G04 CONTOUR ON CENTER OF CONTOUR VECTOR*
%ASAXBY*%
%FSLAX23Y23*%
%MOIN*%
%OFA0B0*%
%SFA1.0B1.0*%
%ADD10C,0.138425*%
%ADD11C,0.070000*%
%ADD12C,0.078000*%
%ADD13C,0.039370*%
%ADD14R,0.061024X0.023622*%
%ADD15C,0.024000*%
%LNCOPPER1*%
G90*
G70*
G54D10*
X948Y746D03*
G54D11*
X1048Y246D03*
X1148Y246D03*
G54D10*
X1748Y746D03*
G54D11*
X1248Y246D03*
X1348Y246D03*
X1448Y246D03*
X1548Y246D03*
X1648Y246D03*
G54D12*
X134Y196D03*
X234Y196D03*
X334Y196D03*
X434Y196D03*
X534Y196D03*
X634Y196D03*
X734Y196D03*
X734Y797D03*
X634Y797D03*
X534Y797D03*
X434Y797D03*
X334Y797D03*
X234Y797D03*
X134Y797D03*
G54D13*
X1366Y167D03*
G54D14*
X1649Y437D03*
X1649Y476D03*
X1649Y515D03*
X1649Y555D03*
X1047Y555D03*
X1047Y515D03*
X1047Y476D03*
X1047Y437D03*
G54D15*
X677Y265D02*
X795Y265D01*
D02*
X795Y265D02*
X893Y167D01*
D02*
X893Y167D02*
X1288Y167D01*
D02*
X1288Y167D02*
X1329Y221D01*
D02*
X650Y222D02*
X677Y265D01*
D02*
X1027Y268D02*
X993Y305D01*
D02*
X678Y718D02*
X382Y718D01*
D02*
X697Y698D02*
X678Y718D01*
D02*
X697Y324D02*
X697Y698D01*
D02*
X716Y305D02*
X697Y324D01*
D02*
X993Y305D02*
X716Y305D01*
D02*
X382Y718D02*
X349Y771D01*
D02*
X1385Y167D02*
X1484Y167D01*
D02*
X1484Y167D02*
X1529Y222D01*
G04 End of Copper1*
M02*