; NON-PLATED HOLES START AT T1
; THROUGH (PLATED) HOLES START AT T100
M48
INCH
T1C0.086614
T100C0.098425
T101C0.015748
T102C0.038000
T103C0.039370
%
T1
X000867Y009149
X017993Y009149
X000867Y000685
X017993Y000685
T100
X009481Y007456
X017481Y007456
T101
X013656Y001672
T102
X007336Y001961
X005336Y007966
X002336Y007966
X007336Y007966
X002336Y001961
X001336Y001961
X004336Y007966
X006336Y001961
X004336Y001961
X006336Y007966
X003336Y007966
X005336Y001961
X001336Y007966
X003336Y001961
T103
X011481Y002456
X010481Y002456
X016481Y002456
X015481Y002456
X014481Y002456
X013481Y002456
X012481Y002456
T00
M30
