G04 MADE WITH FRITZING*
G04 WWW.FRITZING.ORG*
G04 DOUBLE SIDED*
G04 HOLES PLATED*
G04 CONTOUR ON CENTER OF CONTOUR VECTOR*
%ASAXBY*%
%FSLAX23Y23*%
%MOIN*%
%OFA0B0*%
%SFA1.0B1.0*%
%ADD10R,1.889760X0.984252X1.873760X0.968252*%
%ADD11C,0.008000*%
%ADD12R,0.001000X0.001000*%
%LNSILK0*%
G90*
G70*
G54D11*
X4Y980D02*
X1886Y980D01*
X1886Y4D01*
X4Y4D01*
X4Y980D01*
D02*
G54D12*
X1483Y957D02*
X1491Y957D01*
X1516Y957D02*
X1518Y957D01*
X1528Y957D02*
X1529Y957D01*
X1548Y957D02*
X1557Y957D01*
X1582Y957D02*
X1583Y957D01*
X1593Y957D02*
X1595Y957D01*
X1613Y957D02*
X1622Y957D01*
X1647Y957D02*
X1649Y957D01*
X1658Y957D02*
X1660Y957D01*
X1679Y957D02*
X1687Y957D01*
X1713Y957D02*
X1714Y957D01*
X1724Y957D02*
X1725Y957D01*
X1482Y956D02*
X1492Y956D01*
X1516Y956D02*
X1518Y956D01*
X1527Y956D02*
X1529Y956D01*
X1548Y956D02*
X1558Y956D01*
X1582Y956D02*
X1584Y956D01*
X1593Y956D02*
X1595Y956D01*
X1613Y956D02*
X1623Y956D01*
X1647Y956D02*
X1649Y956D01*
X1658Y956D02*
X1660Y956D01*
X1679Y956D02*
X1688Y956D01*
X1712Y956D02*
X1714Y956D01*
X1724Y956D02*
X1726Y956D01*
X1484Y955D02*
X1493Y955D01*
X1516Y955D02*
X1518Y955D01*
X1527Y955D02*
X1529Y955D01*
X1549Y955D02*
X1558Y955D01*
X1581Y955D02*
X1584Y955D01*
X1593Y955D02*
X1595Y955D01*
X1614Y955D02*
X1624Y955D01*
X1647Y955D02*
X1649Y955D01*
X1658Y955D02*
X1660Y955D01*
X1680Y955D02*
X1689Y955D01*
X1712Y955D02*
X1714Y955D01*
X1724Y955D02*
X1726Y955D01*
X1491Y954D02*
X1493Y954D01*
X1516Y954D02*
X1518Y954D01*
X1527Y954D02*
X1529Y954D01*
X1556Y954D02*
X1559Y954D01*
X1581Y954D02*
X1584Y954D01*
X1593Y954D02*
X1595Y954D01*
X1622Y954D02*
X1624Y954D01*
X1647Y954D02*
X1649Y954D01*
X1658Y954D02*
X1660Y954D01*
X1687Y954D02*
X1689Y954D01*
X1712Y954D02*
X1714Y954D01*
X1724Y954D02*
X1726Y954D01*
X1491Y953D02*
X1494Y953D01*
X1516Y953D02*
X1518Y953D01*
X1527Y953D02*
X1529Y953D01*
X1557Y953D02*
X1559Y953D01*
X1581Y953D02*
X1584Y953D01*
X1593Y953D02*
X1595Y953D01*
X1622Y953D02*
X1625Y953D01*
X1647Y953D02*
X1649Y953D01*
X1658Y953D02*
X1660Y953D01*
X1687Y953D02*
X1690Y953D01*
X1712Y953D02*
X1714Y953D01*
X1724Y953D02*
X1726Y953D01*
X1492Y952D02*
X1494Y952D01*
X1516Y952D02*
X1518Y952D01*
X1527Y952D02*
X1529Y952D01*
X1557Y952D02*
X1560Y952D01*
X1581Y952D02*
X1584Y952D01*
X1593Y952D02*
X1595Y952D01*
X1623Y952D02*
X1625Y952D01*
X1647Y952D02*
X1649Y952D01*
X1658Y952D02*
X1660Y952D01*
X1688Y952D02*
X1690Y952D01*
X1712Y952D02*
X1714Y952D01*
X1724Y952D02*
X1726Y952D01*
X1492Y951D02*
X1495Y951D01*
X1516Y951D02*
X1518Y951D01*
X1527Y951D02*
X1529Y951D01*
X1558Y951D02*
X1560Y951D01*
X1581Y951D02*
X1584Y951D01*
X1593Y951D02*
X1595Y951D01*
X1623Y951D02*
X1626Y951D01*
X1647Y951D02*
X1649Y951D01*
X1658Y951D02*
X1660Y951D01*
X1689Y951D02*
X1691Y951D01*
X1712Y951D02*
X1714Y951D01*
X1724Y951D02*
X1726Y951D01*
X1493Y950D02*
X1495Y950D01*
X1516Y950D02*
X1518Y950D01*
X1527Y950D02*
X1529Y950D01*
X1558Y950D02*
X1561Y950D01*
X1581Y950D02*
X1584Y950D01*
X1593Y950D02*
X1595Y950D01*
X1624Y950D02*
X1626Y950D01*
X1647Y950D02*
X1649Y950D01*
X1658Y950D02*
X1660Y950D01*
X1689Y950D02*
X1691Y950D01*
X1712Y950D02*
X1714Y950D01*
X1724Y950D02*
X1726Y950D01*
X1493Y949D02*
X1496Y949D01*
X1516Y949D02*
X1518Y949D01*
X1527Y949D02*
X1529Y949D01*
X1559Y949D02*
X1561Y949D01*
X1581Y949D02*
X1584Y949D01*
X1593Y949D02*
X1595Y949D01*
X1624Y949D02*
X1627Y949D01*
X1647Y949D02*
X1649Y949D01*
X1658Y949D02*
X1660Y949D01*
X1690Y949D02*
X1692Y949D01*
X1712Y949D02*
X1714Y949D01*
X1724Y949D02*
X1726Y949D01*
X1494Y948D02*
X1496Y948D01*
X1516Y948D02*
X1518Y948D01*
X1527Y948D02*
X1529Y948D01*
X1559Y948D02*
X1561Y948D01*
X1581Y948D02*
X1584Y948D01*
X1593Y948D02*
X1595Y948D01*
X1625Y948D02*
X1627Y948D01*
X1647Y948D02*
X1649Y948D01*
X1658Y948D02*
X1660Y948D01*
X1690Y948D02*
X1692Y948D01*
X1712Y948D02*
X1714Y948D01*
X1724Y948D02*
X1726Y948D01*
X1494Y947D02*
X1496Y947D01*
X1516Y947D02*
X1518Y947D01*
X1527Y947D02*
X1529Y947D01*
X1560Y947D02*
X1562Y947D01*
X1581Y947D02*
X1584Y947D01*
X1593Y947D02*
X1595Y947D01*
X1625Y947D02*
X1627Y947D01*
X1647Y947D02*
X1649Y947D01*
X1658Y947D02*
X1660Y947D01*
X1690Y947D02*
X1692Y947D01*
X1712Y947D02*
X1714Y947D01*
X1724Y947D02*
X1726Y947D01*
X1494Y946D02*
X1496Y946D01*
X1516Y946D02*
X1518Y946D01*
X1527Y946D02*
X1529Y946D01*
X1560Y946D02*
X1562Y946D01*
X1581Y946D02*
X1584Y946D01*
X1593Y946D02*
X1595Y946D01*
X1625Y946D02*
X1627Y946D01*
X1647Y946D02*
X1649Y946D01*
X1658Y946D02*
X1660Y946D01*
X1690Y946D02*
X1693Y946D01*
X1712Y946D02*
X1714Y946D01*
X1724Y946D02*
X1726Y946D01*
X1494Y945D02*
X1496Y945D01*
X1516Y945D02*
X1518Y945D01*
X1527Y945D02*
X1529Y945D01*
X1537Y945D02*
X1537Y945D01*
X1559Y945D02*
X1562Y945D01*
X1581Y945D02*
X1584Y945D01*
X1593Y945D02*
X1595Y945D01*
X1603Y945D02*
X1603Y945D01*
X1625Y945D02*
X1627Y945D01*
X1647Y945D02*
X1649Y945D01*
X1658Y945D02*
X1660Y945D01*
X1668Y945D02*
X1668Y945D01*
X1690Y945D02*
X1692Y945D01*
X1712Y945D02*
X1714Y945D01*
X1724Y945D02*
X1726Y945D01*
X1494Y944D02*
X1496Y944D01*
X1516Y944D02*
X1518Y944D01*
X1527Y944D02*
X1529Y944D01*
X1537Y944D02*
X1538Y944D01*
X1559Y944D02*
X1561Y944D01*
X1581Y944D02*
X1584Y944D01*
X1593Y944D02*
X1595Y944D01*
X1602Y944D02*
X1604Y944D01*
X1625Y944D02*
X1627Y944D01*
X1647Y944D02*
X1649Y944D01*
X1658Y944D02*
X1660Y944D01*
X1667Y944D02*
X1669Y944D01*
X1690Y944D02*
X1692Y944D01*
X1712Y944D02*
X1714Y944D01*
X1724Y944D02*
X1726Y944D01*
X1733Y944D02*
X1734Y944D01*
X1493Y943D02*
X1496Y943D01*
X1516Y943D02*
X1518Y943D01*
X1527Y943D02*
X1529Y943D01*
X1536Y943D02*
X1538Y943D01*
X1559Y943D02*
X1561Y943D01*
X1581Y943D02*
X1584Y943D01*
X1593Y943D02*
X1595Y943D01*
X1602Y943D02*
X1604Y943D01*
X1624Y943D02*
X1626Y943D01*
X1647Y943D02*
X1649Y943D01*
X1658Y943D02*
X1660Y943D01*
X1667Y943D02*
X1669Y943D01*
X1689Y943D02*
X1692Y943D01*
X1712Y943D02*
X1714Y943D01*
X1724Y943D02*
X1726Y943D01*
X1733Y943D02*
X1735Y943D01*
X1493Y942D02*
X1495Y942D01*
X1516Y942D02*
X1518Y942D01*
X1527Y942D02*
X1529Y942D01*
X1536Y942D02*
X1538Y942D01*
X1558Y942D02*
X1561Y942D01*
X1581Y942D02*
X1584Y942D01*
X1593Y942D02*
X1595Y942D01*
X1602Y942D02*
X1604Y942D01*
X1623Y942D02*
X1626Y942D01*
X1647Y942D02*
X1649Y942D01*
X1658Y942D02*
X1660Y942D01*
X1667Y942D02*
X1669Y942D01*
X1689Y942D02*
X1691Y942D01*
X1712Y942D02*
X1714Y942D01*
X1724Y942D02*
X1726Y942D01*
X1733Y942D02*
X1735Y942D01*
X1492Y941D02*
X1495Y941D01*
X1516Y941D02*
X1518Y941D01*
X1527Y941D02*
X1529Y941D01*
X1536Y941D02*
X1538Y941D01*
X1558Y941D02*
X1560Y941D01*
X1581Y941D02*
X1584Y941D01*
X1593Y941D02*
X1595Y941D01*
X1602Y941D02*
X1604Y941D01*
X1623Y941D02*
X1625Y941D01*
X1647Y941D02*
X1649Y941D01*
X1658Y941D02*
X1660Y941D01*
X1667Y941D02*
X1669Y941D01*
X1688Y941D02*
X1691Y941D01*
X1712Y941D02*
X1714Y941D01*
X1724Y941D02*
X1726Y941D01*
X1733Y941D02*
X1735Y941D01*
X1492Y940D02*
X1494Y940D01*
X1516Y940D02*
X1518Y940D01*
X1527Y940D02*
X1529Y940D01*
X1536Y940D02*
X1538Y940D01*
X1557Y940D02*
X1560Y940D01*
X1581Y940D02*
X1584Y940D01*
X1593Y940D02*
X1595Y940D01*
X1602Y940D02*
X1604Y940D01*
X1622Y940D02*
X1625Y940D01*
X1647Y940D02*
X1649Y940D01*
X1658Y940D02*
X1660Y940D01*
X1667Y940D02*
X1669Y940D01*
X1688Y940D02*
X1690Y940D01*
X1712Y940D02*
X1714Y940D01*
X1724Y940D02*
X1726Y940D01*
X1733Y940D02*
X1735Y940D01*
X1491Y939D02*
X1494Y939D01*
X1516Y939D02*
X1518Y939D01*
X1527Y939D02*
X1529Y939D01*
X1536Y939D02*
X1538Y939D01*
X1557Y939D02*
X1559Y939D01*
X1581Y939D02*
X1584Y939D01*
X1593Y939D02*
X1595Y939D01*
X1602Y939D02*
X1604Y939D01*
X1622Y939D02*
X1624Y939D01*
X1647Y939D02*
X1649Y939D01*
X1658Y939D02*
X1660Y939D01*
X1667Y939D02*
X1669Y939D01*
X1687Y939D02*
X1690Y939D01*
X1712Y939D02*
X1714Y939D01*
X1724Y939D02*
X1726Y939D01*
X1733Y939D02*
X1735Y939D01*
X1491Y938D02*
X1493Y938D01*
X1516Y938D02*
X1518Y938D01*
X1528Y938D02*
X1530Y938D01*
X1536Y938D02*
X1538Y938D01*
X1556Y938D02*
X1559Y938D01*
X1581Y938D02*
X1584Y938D01*
X1593Y938D02*
X1595Y938D01*
X1601Y938D02*
X1604Y938D01*
X1621Y938D02*
X1624Y938D01*
X1647Y938D02*
X1649Y938D01*
X1658Y938D02*
X1661Y938D01*
X1667Y938D02*
X1669Y938D01*
X1687Y938D02*
X1689Y938D01*
X1712Y938D02*
X1714Y938D01*
X1724Y938D02*
X1726Y938D01*
X1732Y938D02*
X1734Y938D01*
X1483Y937D02*
X1493Y937D01*
X1505Y937D02*
X1518Y937D01*
X1528Y937D02*
X1538Y937D01*
X1548Y937D02*
X1558Y937D01*
X1570Y937D02*
X1584Y937D01*
X1593Y937D02*
X1603Y937D01*
X1614Y937D02*
X1623Y937D01*
X1636Y937D02*
X1649Y937D01*
X1659Y937D02*
X1669Y937D01*
X1679Y937D02*
X1689Y937D01*
X1701Y937D02*
X1714Y937D01*
X1724Y937D02*
X1734Y937D01*
X1482Y936D02*
X1492Y936D01*
X1504Y936D02*
X1518Y936D01*
X1529Y936D02*
X1537Y936D01*
X1548Y936D02*
X1557Y936D01*
X1570Y936D02*
X1584Y936D01*
X1594Y936D02*
X1603Y936D01*
X1613Y936D02*
X1623Y936D01*
X1635Y936D02*
X1649Y936D01*
X1659Y936D02*
X1668Y936D01*
X1679Y936D02*
X1688Y936D01*
X1700Y936D02*
X1714Y936D01*
X1725Y936D02*
X1733Y936D01*
X1483Y935D02*
X1491Y935D01*
X1505Y935D02*
X1518Y935D01*
X1530Y935D02*
X1536Y935D01*
X1548Y935D02*
X1556Y935D01*
X1570Y935D02*
X1584Y935D01*
X1595Y935D02*
X1601Y935D01*
X1614Y935D02*
X1622Y935D01*
X1635Y935D02*
X1649Y935D01*
X1661Y935D02*
X1667Y935D01*
X1679Y935D02*
X1687Y935D01*
X1701Y935D02*
X1714Y935D01*
X1726Y935D02*
X1732Y935D01*
X104Y650D02*
X119Y650D01*
X186Y650D02*
X208Y650D01*
X281Y650D02*
X297Y650D01*
X811Y650D02*
X813Y650D01*
X829Y650D02*
X858Y650D01*
X103Y649D02*
X121Y649D01*
X184Y649D02*
X209Y649D01*
X281Y649D02*
X298Y649D01*
X810Y649D02*
X814Y649D01*
X829Y649D02*
X858Y649D01*
X102Y648D02*
X122Y648D01*
X184Y648D02*
X210Y648D01*
X281Y648D02*
X298Y648D01*
X809Y648D02*
X814Y648D01*
X829Y648D02*
X858Y648D01*
X102Y647D02*
X123Y647D01*
X155Y647D02*
X159Y647D01*
X183Y647D02*
X211Y647D01*
X281Y647D02*
X298Y647D01*
X499Y647D02*
X502Y647D01*
X809Y647D02*
X814Y647D01*
X829Y647D02*
X858Y647D01*
X103Y646D02*
X124Y646D01*
X153Y646D02*
X161Y646D01*
X182Y646D02*
X211Y646D01*
X281Y646D02*
X298Y646D01*
X498Y646D02*
X503Y646D01*
X809Y646D02*
X814Y646D01*
X829Y646D02*
X858Y646D01*
X104Y645D02*
X124Y645D01*
X152Y645D02*
X162Y645D01*
X182Y645D02*
X211Y645D01*
X281Y645D02*
X297Y645D01*
X498Y645D02*
X503Y645D01*
X809Y645D02*
X814Y645D01*
X829Y645D02*
X858Y645D01*
X118Y644D02*
X125Y644D01*
X151Y644D02*
X155Y644D01*
X158Y644D02*
X163Y644D01*
X182Y644D02*
X187Y644D01*
X206Y644D02*
X211Y644D01*
X281Y644D02*
X287Y644D01*
X498Y644D02*
X503Y644D01*
X809Y644D02*
X814Y644D01*
X829Y644D02*
X834Y644D01*
X841Y644D02*
X846Y644D01*
X853Y644D02*
X858Y644D01*
X119Y643D02*
X125Y643D01*
X150Y643D02*
X153Y643D01*
X161Y643D02*
X164Y643D01*
X182Y643D02*
X187Y643D01*
X206Y643D02*
X211Y643D01*
X281Y643D02*
X287Y643D01*
X498Y643D02*
X503Y643D01*
X809Y643D02*
X814Y643D01*
X829Y643D02*
X834Y643D01*
X841Y643D02*
X846Y643D01*
X853Y643D02*
X858Y643D01*
X120Y642D02*
X126Y642D01*
X150Y642D02*
X152Y642D01*
X161Y642D02*
X164Y642D01*
X182Y642D02*
X187Y642D01*
X206Y642D02*
X211Y642D01*
X281Y642D02*
X287Y642D01*
X498Y642D02*
X503Y642D01*
X809Y642D02*
X814Y642D01*
X829Y642D02*
X834Y642D01*
X841Y642D02*
X846Y642D01*
X853Y642D02*
X858Y642D01*
X120Y641D02*
X126Y641D01*
X149Y641D02*
X152Y641D01*
X162Y641D02*
X164Y641D01*
X182Y641D02*
X187Y641D01*
X206Y641D02*
X211Y641D01*
X281Y641D02*
X287Y641D01*
X498Y641D02*
X503Y641D01*
X809Y641D02*
X814Y641D01*
X829Y641D02*
X834Y641D01*
X841Y641D02*
X846Y641D01*
X853Y641D02*
X858Y641D01*
X121Y640D02*
X127Y640D01*
X149Y640D02*
X152Y640D01*
X162Y640D02*
X165Y640D01*
X182Y640D02*
X187Y640D01*
X206Y640D02*
X211Y640D01*
X281Y640D02*
X287Y640D01*
X498Y640D02*
X503Y640D01*
X809Y640D02*
X814Y640D01*
X830Y640D02*
X833Y640D01*
X841Y640D02*
X846Y640D01*
X854Y640D02*
X857Y640D01*
X121Y639D02*
X127Y639D01*
X149Y639D02*
X152Y639D01*
X162Y639D02*
X165Y639D01*
X182Y639D02*
X187Y639D01*
X206Y639D02*
X211Y639D01*
X281Y639D02*
X287Y639D01*
X323Y639D02*
X325Y639D01*
X498Y639D02*
X503Y639D01*
X809Y639D02*
X814Y639D01*
X841Y639D02*
X846Y639D01*
X122Y638D02*
X128Y638D01*
X149Y638D02*
X152Y638D01*
X162Y638D02*
X165Y638D01*
X182Y638D02*
X187Y638D01*
X206Y638D02*
X211Y638D01*
X281Y638D02*
X287Y638D01*
X323Y638D02*
X325Y638D01*
X498Y638D02*
X503Y638D01*
X809Y638D02*
X814Y638D01*
X841Y638D02*
X846Y638D01*
X122Y637D02*
X128Y637D01*
X150Y637D02*
X152Y637D01*
X162Y637D02*
X164Y637D01*
X182Y637D02*
X187Y637D01*
X206Y637D02*
X211Y637D01*
X281Y637D02*
X287Y637D01*
X323Y637D02*
X325Y637D01*
X399Y637D02*
X409Y637D01*
X418Y637D02*
X421Y637D01*
X444Y637D02*
X458Y637D01*
X484Y637D02*
X508Y637D01*
X532Y637D02*
X545Y637D01*
X572Y637D02*
X577Y637D01*
X584Y637D02*
X589Y637D01*
X593Y637D02*
X596Y637D01*
X619Y637D02*
X632Y637D01*
X660Y637D02*
X664Y637D01*
X671Y637D02*
X676Y637D01*
X680Y637D02*
X683Y637D01*
X704Y637D02*
X714Y637D01*
X723Y637D02*
X726Y637D01*
X749Y637D02*
X763Y637D01*
X792Y637D02*
X801Y637D01*
X809Y637D02*
X814Y637D01*
X841Y637D02*
X846Y637D01*
X123Y636D02*
X129Y636D01*
X150Y636D02*
X153Y636D01*
X161Y636D02*
X164Y636D01*
X182Y636D02*
X187Y636D01*
X206Y636D02*
X211Y636D01*
X281Y636D02*
X287Y636D01*
X323Y636D02*
X325Y636D01*
X397Y636D02*
X410Y636D01*
X417Y636D02*
X422Y636D01*
X443Y636D02*
X460Y636D01*
X484Y636D02*
X509Y636D01*
X530Y636D02*
X547Y636D01*
X571Y636D02*
X578Y636D01*
X582Y636D02*
X590Y636D01*
X592Y636D02*
X597Y636D01*
X617Y636D02*
X634Y636D01*
X658Y636D02*
X665Y636D01*
X669Y636D02*
X677Y636D01*
X679Y636D02*
X684Y636D01*
X702Y636D02*
X715Y636D01*
X722Y636D02*
X727Y636D01*
X748Y636D02*
X765Y636D01*
X790Y636D02*
X803Y636D01*
X809Y636D02*
X814Y636D01*
X841Y636D02*
X846Y636D01*
X123Y635D02*
X129Y635D01*
X150Y635D02*
X154Y635D01*
X160Y635D02*
X163Y635D01*
X182Y635D02*
X187Y635D01*
X206Y635D02*
X211Y635D01*
X281Y635D02*
X287Y635D01*
X323Y635D02*
X325Y635D01*
X396Y635D02*
X411Y635D01*
X417Y635D02*
X422Y635D01*
X441Y635D02*
X461Y635D01*
X483Y635D02*
X509Y635D01*
X528Y635D02*
X548Y635D01*
X570Y635D02*
X597Y635D01*
X616Y635D02*
X635Y635D01*
X657Y635D02*
X684Y635D01*
X701Y635D02*
X716Y635D01*
X722Y635D02*
X727Y635D01*
X746Y635D02*
X766Y635D01*
X789Y635D02*
X804Y635D01*
X809Y635D02*
X814Y635D01*
X841Y635D02*
X846Y635D01*
X124Y634D02*
X130Y634D01*
X151Y634D02*
X163Y634D01*
X182Y634D02*
X187Y634D01*
X206Y634D02*
X211Y634D01*
X281Y634D02*
X287Y634D01*
X323Y634D02*
X325Y634D01*
X395Y634D02*
X412Y634D01*
X417Y634D02*
X422Y634D01*
X440Y634D02*
X462Y634D01*
X483Y634D02*
X509Y634D01*
X527Y634D02*
X549Y634D01*
X569Y634D02*
X597Y634D01*
X614Y634D02*
X636Y634D01*
X656Y634D02*
X684Y634D01*
X700Y634D02*
X718Y634D01*
X722Y634D02*
X727Y634D01*
X745Y634D02*
X767Y634D01*
X788Y634D02*
X806Y634D01*
X809Y634D02*
X814Y634D01*
X841Y634D02*
X846Y634D01*
X124Y633D02*
X130Y633D01*
X152Y633D02*
X162Y633D01*
X182Y633D02*
X187Y633D01*
X206Y633D02*
X211Y633D01*
X281Y633D02*
X287Y633D01*
X323Y633D02*
X325Y633D01*
X394Y633D02*
X414Y633D01*
X417Y633D02*
X422Y633D01*
X439Y633D02*
X463Y633D01*
X484Y633D02*
X509Y633D01*
X526Y633D02*
X550Y633D01*
X568Y633D02*
X597Y633D01*
X613Y633D02*
X637Y633D01*
X655Y633D02*
X684Y633D01*
X699Y633D02*
X719Y633D01*
X722Y633D02*
X727Y633D01*
X744Y633D02*
X768Y633D01*
X787Y633D02*
X814Y633D01*
X841Y633D02*
X846Y633D01*
X125Y632D02*
X130Y632D01*
X153Y632D02*
X160Y632D01*
X182Y632D02*
X187Y632D01*
X206Y632D02*
X211Y632D01*
X281Y632D02*
X287Y632D01*
X323Y632D02*
X325Y632D01*
X394Y632D02*
X415Y632D01*
X417Y632D02*
X422Y632D01*
X438Y632D02*
X464Y632D01*
X485Y632D02*
X508Y632D01*
X525Y632D02*
X551Y632D01*
X568Y632D02*
X597Y632D01*
X613Y632D02*
X638Y632D01*
X655Y632D02*
X684Y632D01*
X699Y632D02*
X720Y632D01*
X722Y632D02*
X727Y632D01*
X743Y632D02*
X769Y632D01*
X787Y632D02*
X814Y632D01*
X841Y632D02*
X846Y632D01*
X125Y631D02*
X131Y631D01*
X157Y631D02*
X157Y631D01*
X182Y631D02*
X187Y631D01*
X206Y631D02*
X211Y631D01*
X281Y631D02*
X287Y631D01*
X323Y631D02*
X325Y631D01*
X393Y631D02*
X399Y631D01*
X408Y631D02*
X422Y631D01*
X438Y631D02*
X445Y631D01*
X457Y631D02*
X464Y631D01*
X498Y631D02*
X503Y631D01*
X525Y631D02*
X532Y631D01*
X544Y631D02*
X552Y631D01*
X568Y631D02*
X573Y631D01*
X576Y631D02*
X585Y631D01*
X588Y631D02*
X597Y631D01*
X612Y631D02*
X619Y631D01*
X631Y631D02*
X639Y631D01*
X655Y631D02*
X660Y631D01*
X663Y631D02*
X672Y631D01*
X675Y631D02*
X684Y631D01*
X698Y631D02*
X704Y631D01*
X713Y631D02*
X727Y631D01*
X743Y631D02*
X750Y631D01*
X762Y631D02*
X770Y631D01*
X786Y631D02*
X792Y631D01*
X800Y631D02*
X814Y631D01*
X841Y631D02*
X846Y631D01*
X126Y630D02*
X131Y630D01*
X182Y630D02*
X187Y630D01*
X206Y630D02*
X211Y630D01*
X281Y630D02*
X287Y630D01*
X323Y630D02*
X325Y630D01*
X393Y630D02*
X398Y630D01*
X409Y630D02*
X422Y630D01*
X437Y630D02*
X444Y630D01*
X458Y630D02*
X465Y630D01*
X498Y630D02*
X503Y630D01*
X524Y630D02*
X531Y630D01*
X546Y630D02*
X552Y630D01*
X568Y630D02*
X573Y630D01*
X577Y630D02*
X584Y630D01*
X589Y630D02*
X597Y630D01*
X611Y630D02*
X618Y630D01*
X633Y630D02*
X639Y630D01*
X655Y630D02*
X660Y630D01*
X664Y630D02*
X672Y630D01*
X676Y630D02*
X684Y630D01*
X698Y630D02*
X704Y630D01*
X714Y630D02*
X727Y630D01*
X742Y630D02*
X749Y630D01*
X764Y630D02*
X770Y630D01*
X786Y630D02*
X792Y630D01*
X802Y630D02*
X814Y630D01*
X841Y630D02*
X846Y630D01*
X126Y629D02*
X131Y629D01*
X182Y629D02*
X187Y629D01*
X206Y629D02*
X211Y629D01*
X281Y629D02*
X287Y629D01*
X323Y629D02*
X325Y629D01*
X393Y629D02*
X398Y629D01*
X410Y629D02*
X422Y629D01*
X437Y629D02*
X443Y629D01*
X459Y629D02*
X465Y629D01*
X498Y629D02*
X503Y629D01*
X524Y629D02*
X530Y629D01*
X547Y629D02*
X552Y629D01*
X568Y629D02*
X573Y629D01*
X578Y629D02*
X584Y629D01*
X590Y629D02*
X597Y629D01*
X611Y629D02*
X617Y629D01*
X634Y629D02*
X640Y629D01*
X655Y629D02*
X660Y629D01*
X665Y629D02*
X672Y629D01*
X677Y629D02*
X684Y629D01*
X698Y629D02*
X703Y629D01*
X715Y629D02*
X727Y629D01*
X742Y629D02*
X748Y629D01*
X765Y629D02*
X770Y629D01*
X786Y629D02*
X791Y629D01*
X803Y629D02*
X814Y629D01*
X841Y629D02*
X846Y629D01*
X126Y628D02*
X131Y628D01*
X182Y628D02*
X187Y628D01*
X206Y628D02*
X211Y628D01*
X281Y628D02*
X287Y628D01*
X323Y628D02*
X325Y628D01*
X393Y628D02*
X398Y628D01*
X411Y628D02*
X422Y628D01*
X437Y628D02*
X442Y628D01*
X460Y628D02*
X465Y628D01*
X498Y628D02*
X503Y628D01*
X524Y628D02*
X529Y628D01*
X547Y628D02*
X553Y628D01*
X568Y628D02*
X573Y628D01*
X579Y628D02*
X584Y628D01*
X591Y628D02*
X597Y628D01*
X611Y628D02*
X616Y628D01*
X635Y628D02*
X640Y628D01*
X655Y628D02*
X660Y628D01*
X666Y628D02*
X672Y628D01*
X679Y628D02*
X684Y628D01*
X698Y628D02*
X703Y628D01*
X716Y628D02*
X727Y628D01*
X742Y628D02*
X747Y628D01*
X765Y628D02*
X771Y628D01*
X786Y628D02*
X791Y628D01*
X805Y628D02*
X814Y628D01*
X841Y628D02*
X846Y628D01*
X126Y627D02*
X131Y627D01*
X182Y627D02*
X187Y627D01*
X206Y627D02*
X211Y627D01*
X281Y627D02*
X287Y627D01*
X323Y627D02*
X325Y627D01*
X393Y627D02*
X398Y627D01*
X412Y627D02*
X422Y627D01*
X437Y627D02*
X442Y627D01*
X460Y627D02*
X466Y627D01*
X498Y627D02*
X503Y627D01*
X524Y627D02*
X529Y627D01*
X548Y627D02*
X553Y627D01*
X568Y627D02*
X573Y627D01*
X579Y627D02*
X584Y627D01*
X592Y627D02*
X597Y627D01*
X611Y627D02*
X616Y627D01*
X635Y627D02*
X640Y627D01*
X655Y627D02*
X660Y627D01*
X666Y627D02*
X672Y627D01*
X679Y627D02*
X684Y627D01*
X698Y627D02*
X703Y627D01*
X717Y627D02*
X727Y627D01*
X742Y627D02*
X747Y627D01*
X766Y627D02*
X771Y627D01*
X786Y627D02*
X791Y627D01*
X806Y627D02*
X814Y627D01*
X841Y627D02*
X846Y627D01*
X126Y626D02*
X131Y626D01*
X182Y626D02*
X187Y626D01*
X206Y626D02*
X211Y626D01*
X281Y626D02*
X287Y626D01*
X323Y626D02*
X325Y626D01*
X393Y626D02*
X398Y626D01*
X413Y626D02*
X422Y626D01*
X436Y626D02*
X442Y626D01*
X461Y626D02*
X466Y626D01*
X498Y626D02*
X503Y626D01*
X524Y626D02*
X529Y626D01*
X548Y626D02*
X553Y626D01*
X568Y626D02*
X573Y626D01*
X579Y626D02*
X584Y626D01*
X592Y626D02*
X597Y626D01*
X611Y626D02*
X616Y626D01*
X635Y626D02*
X640Y626D01*
X655Y626D02*
X660Y626D01*
X666Y626D02*
X672Y626D01*
X679Y626D02*
X684Y626D01*
X698Y626D02*
X703Y626D01*
X718Y626D02*
X727Y626D01*
X742Y626D02*
X747Y626D01*
X766Y626D02*
X771Y626D01*
X786Y626D02*
X791Y626D01*
X808Y626D02*
X814Y626D01*
X841Y626D02*
X846Y626D01*
X126Y625D02*
X131Y625D01*
X182Y625D02*
X187Y625D01*
X206Y625D02*
X211Y625D01*
X281Y625D02*
X287Y625D01*
X311Y625D02*
X337Y625D01*
X394Y625D02*
X397Y625D01*
X414Y625D02*
X422Y625D01*
X436Y625D02*
X442Y625D01*
X461Y625D02*
X466Y625D01*
X498Y625D02*
X503Y625D01*
X524Y625D02*
X529Y625D01*
X548Y625D02*
X553Y625D01*
X568Y625D02*
X573Y625D01*
X579Y625D02*
X584Y625D01*
X592Y625D02*
X597Y625D01*
X611Y625D02*
X616Y625D01*
X635Y625D02*
X640Y625D01*
X655Y625D02*
X660Y625D01*
X666Y625D02*
X672Y625D01*
X679Y625D02*
X684Y625D01*
X699Y625D02*
X702Y625D01*
X720Y625D02*
X727Y625D01*
X742Y625D02*
X747Y625D01*
X766Y625D02*
X771Y625D01*
X786Y625D02*
X791Y625D01*
X809Y625D02*
X814Y625D01*
X841Y625D02*
X846Y625D01*
X126Y624D02*
X131Y624D01*
X182Y624D02*
X187Y624D01*
X206Y624D02*
X211Y624D01*
X270Y624D02*
X273Y624D01*
X281Y624D02*
X287Y624D01*
X311Y624D02*
X337Y624D01*
X395Y624D02*
X396Y624D01*
X416Y624D02*
X422Y624D01*
X436Y624D02*
X442Y624D01*
X461Y624D02*
X466Y624D01*
X498Y624D02*
X503Y624D01*
X524Y624D02*
X529Y624D01*
X548Y624D02*
X553Y624D01*
X567Y624D02*
X573Y624D01*
X579Y624D02*
X584Y624D01*
X592Y624D02*
X597Y624D01*
X611Y624D02*
X616Y624D01*
X635Y624D02*
X640Y624D01*
X655Y624D02*
X660Y624D01*
X666Y624D02*
X672Y624D01*
X679Y624D02*
X684Y624D01*
X700Y624D02*
X701Y624D01*
X721Y624D02*
X727Y624D01*
X742Y624D02*
X747Y624D01*
X766Y624D02*
X771Y624D01*
X786Y624D02*
X791Y624D01*
X809Y624D02*
X814Y624D01*
X841Y624D02*
X846Y624D01*
X125Y623D02*
X131Y623D01*
X182Y623D02*
X187Y623D01*
X206Y623D02*
X211Y623D01*
X270Y623D02*
X274Y623D01*
X281Y623D02*
X287Y623D01*
X323Y623D02*
X325Y623D01*
X417Y623D02*
X422Y623D01*
X436Y623D02*
X442Y623D01*
X461Y623D02*
X466Y623D01*
X498Y623D02*
X503Y623D01*
X524Y623D02*
X529Y623D01*
X548Y623D02*
X553Y623D01*
X567Y623D02*
X573Y623D01*
X579Y623D02*
X584Y623D01*
X592Y623D02*
X597Y623D01*
X611Y623D02*
X616Y623D01*
X635Y623D02*
X640Y623D01*
X655Y623D02*
X660Y623D01*
X666Y623D02*
X672Y623D01*
X679Y623D02*
X684Y623D01*
X722Y623D02*
X727Y623D01*
X742Y623D02*
X747Y623D01*
X766Y623D02*
X771Y623D01*
X786Y623D02*
X791Y623D01*
X809Y623D02*
X814Y623D01*
X841Y623D02*
X846Y623D01*
X125Y622D02*
X130Y622D01*
X182Y622D02*
X187Y622D01*
X206Y622D02*
X211Y622D01*
X237Y622D02*
X244Y622D01*
X269Y622D02*
X274Y622D01*
X281Y622D02*
X287Y622D01*
X323Y622D02*
X325Y622D01*
X417Y622D02*
X422Y622D01*
X436Y622D02*
X466Y622D01*
X498Y622D02*
X503Y622D01*
X524Y622D02*
X553Y622D01*
X567Y622D02*
X573Y622D01*
X579Y622D02*
X584Y622D01*
X592Y622D02*
X597Y622D01*
X611Y622D02*
X616Y622D01*
X635Y622D02*
X640Y622D01*
X655Y622D02*
X660Y622D01*
X666Y622D02*
X672Y622D01*
X679Y622D02*
X684Y622D01*
X722Y622D02*
X727Y622D01*
X742Y622D02*
X771Y622D01*
X786Y622D02*
X791Y622D01*
X809Y622D02*
X814Y622D01*
X841Y622D02*
X846Y622D01*
X124Y621D02*
X130Y621D01*
X182Y621D02*
X187Y621D01*
X206Y621D02*
X211Y621D01*
X235Y621D02*
X245Y621D01*
X269Y621D02*
X275Y621D01*
X281Y621D02*
X287Y621D01*
X323Y621D02*
X325Y621D01*
X417Y621D02*
X422Y621D01*
X436Y621D02*
X466Y621D01*
X498Y621D02*
X503Y621D01*
X524Y621D02*
X553Y621D01*
X567Y621D02*
X572Y621D01*
X579Y621D02*
X584Y621D01*
X592Y621D02*
X597Y621D01*
X611Y621D02*
X616Y621D01*
X635Y621D02*
X640Y621D01*
X655Y621D02*
X660Y621D01*
X666Y621D02*
X672Y621D01*
X679Y621D02*
X684Y621D01*
X722Y621D02*
X727Y621D01*
X742Y621D02*
X771Y621D01*
X786Y621D02*
X791Y621D01*
X809Y621D02*
X814Y621D01*
X841Y621D02*
X846Y621D01*
X124Y620D02*
X130Y620D01*
X182Y620D02*
X187Y620D01*
X206Y620D02*
X211Y620D01*
X235Y620D02*
X246Y620D01*
X269Y620D02*
X275Y620D01*
X281Y620D02*
X287Y620D01*
X323Y620D02*
X325Y620D01*
X417Y620D02*
X422Y620D01*
X436Y620D02*
X466Y620D01*
X498Y620D02*
X503Y620D01*
X524Y620D02*
X553Y620D01*
X567Y620D02*
X572Y620D01*
X579Y620D02*
X584Y620D01*
X592Y620D02*
X597Y620D01*
X611Y620D02*
X616Y620D01*
X635Y620D02*
X640Y620D01*
X655Y620D02*
X660Y620D01*
X666Y620D02*
X672Y620D01*
X679Y620D02*
X684Y620D01*
X722Y620D02*
X727Y620D01*
X742Y620D02*
X771Y620D01*
X786Y620D02*
X791Y620D01*
X809Y620D02*
X814Y620D01*
X841Y620D02*
X846Y620D01*
X123Y619D02*
X129Y619D01*
X182Y619D02*
X187Y619D01*
X206Y619D02*
X211Y619D01*
X235Y619D02*
X246Y619D01*
X269Y619D02*
X275Y619D01*
X281Y619D02*
X287Y619D01*
X323Y619D02*
X325Y619D01*
X417Y619D02*
X422Y619D01*
X437Y619D02*
X466Y619D01*
X498Y619D02*
X503Y619D01*
X524Y619D02*
X553Y619D01*
X567Y619D02*
X572Y619D01*
X579Y619D02*
X584Y619D01*
X592Y619D02*
X597Y619D01*
X611Y619D02*
X616Y619D01*
X635Y619D02*
X640Y619D01*
X654Y619D02*
X660Y619D01*
X666Y619D02*
X672Y619D01*
X679Y619D02*
X684Y619D01*
X722Y619D02*
X727Y619D01*
X742Y619D02*
X771Y619D01*
X786Y619D02*
X791Y619D01*
X809Y619D02*
X814Y619D01*
X841Y619D02*
X846Y619D01*
X123Y618D02*
X129Y618D01*
X182Y618D02*
X187Y618D01*
X206Y618D02*
X211Y618D01*
X235Y618D02*
X246Y618D01*
X269Y618D02*
X275Y618D01*
X281Y618D02*
X287Y618D01*
X323Y618D02*
X325Y618D01*
X417Y618D02*
X422Y618D01*
X437Y618D02*
X466Y618D01*
X498Y618D02*
X503Y618D01*
X524Y618D02*
X553Y618D01*
X567Y618D02*
X572Y618D01*
X579Y618D02*
X584Y618D01*
X592Y618D02*
X597Y618D01*
X611Y618D02*
X616Y618D01*
X635Y618D02*
X640Y618D01*
X654Y618D02*
X660Y618D01*
X666Y618D02*
X672Y618D01*
X679Y618D02*
X684Y618D01*
X722Y618D02*
X727Y618D01*
X742Y618D02*
X771Y618D01*
X786Y618D02*
X791Y618D01*
X809Y618D02*
X814Y618D01*
X841Y618D02*
X846Y618D01*
X122Y617D02*
X128Y617D01*
X182Y617D02*
X187Y617D01*
X206Y617D02*
X211Y617D01*
X235Y617D02*
X246Y617D01*
X269Y617D02*
X275Y617D01*
X281Y617D02*
X287Y617D01*
X323Y617D02*
X325Y617D01*
X417Y617D02*
X422Y617D01*
X438Y617D02*
X466Y617D01*
X498Y617D02*
X503Y617D01*
X525Y617D02*
X553Y617D01*
X567Y617D02*
X572Y617D01*
X579Y617D02*
X584Y617D01*
X592Y617D02*
X597Y617D01*
X611Y617D02*
X616Y617D01*
X635Y617D02*
X640Y617D01*
X654Y617D02*
X660Y617D01*
X666Y617D02*
X672Y617D01*
X679Y617D02*
X684Y617D01*
X722Y617D02*
X727Y617D01*
X743Y617D02*
X771Y617D01*
X786Y617D02*
X791Y617D01*
X809Y617D02*
X814Y617D01*
X841Y617D02*
X846Y617D01*
X122Y616D02*
X128Y616D01*
X182Y616D02*
X187Y616D01*
X206Y616D02*
X211Y616D01*
X235Y616D02*
X246Y616D01*
X269Y616D02*
X275Y616D01*
X281Y616D02*
X287Y616D01*
X323Y616D02*
X325Y616D01*
X417Y616D02*
X422Y616D01*
X460Y616D02*
X466Y616D01*
X498Y616D02*
X503Y616D01*
X547Y616D02*
X553Y616D01*
X567Y616D02*
X572Y616D01*
X579Y616D02*
X584Y616D01*
X592Y616D02*
X597Y616D01*
X611Y616D02*
X616Y616D01*
X635Y616D02*
X640Y616D01*
X654Y616D02*
X659Y616D01*
X666Y616D02*
X672Y616D01*
X679Y616D02*
X684Y616D01*
X722Y616D02*
X727Y616D01*
X765Y616D02*
X771Y616D01*
X786Y616D02*
X791Y616D01*
X809Y616D02*
X814Y616D01*
X841Y616D02*
X846Y616D01*
X121Y615D02*
X127Y615D01*
X182Y615D02*
X187Y615D01*
X206Y615D02*
X211Y615D01*
X235Y615D02*
X246Y615D01*
X269Y615D02*
X275Y615D01*
X281Y615D02*
X287Y615D01*
X323Y615D02*
X325Y615D01*
X417Y615D02*
X422Y615D01*
X461Y615D02*
X466Y615D01*
X498Y615D02*
X503Y615D01*
X548Y615D02*
X553Y615D01*
X567Y615D02*
X572Y615D01*
X579Y615D02*
X584Y615D01*
X592Y615D02*
X597Y615D01*
X611Y615D02*
X616Y615D01*
X635Y615D02*
X640Y615D01*
X654Y615D02*
X659Y615D01*
X666Y615D02*
X672Y615D01*
X679Y615D02*
X684Y615D01*
X722Y615D02*
X727Y615D01*
X766Y615D02*
X771Y615D01*
X786Y615D02*
X791Y615D01*
X809Y615D02*
X814Y615D01*
X841Y615D02*
X846Y615D01*
X121Y614D02*
X127Y614D01*
X182Y614D02*
X187Y614D01*
X206Y614D02*
X211Y614D01*
X235Y614D02*
X246Y614D01*
X269Y614D02*
X275Y614D01*
X281Y614D02*
X287Y614D01*
X323Y614D02*
X325Y614D01*
X417Y614D02*
X422Y614D01*
X460Y614D02*
X466Y614D01*
X482Y614D02*
X484Y614D01*
X498Y614D02*
X503Y614D01*
X548Y614D02*
X553Y614D01*
X567Y614D02*
X572Y614D01*
X579Y614D02*
X584Y614D01*
X592Y614D02*
X597Y614D01*
X611Y614D02*
X616Y614D01*
X635Y614D02*
X640Y614D01*
X654Y614D02*
X659Y614D01*
X666Y614D02*
X672Y614D01*
X679Y614D02*
X684Y614D01*
X722Y614D02*
X727Y614D01*
X766Y614D02*
X771Y614D01*
X786Y614D02*
X791Y614D01*
X809Y614D02*
X814Y614D01*
X841Y614D02*
X846Y614D01*
X120Y613D02*
X126Y613D01*
X182Y613D02*
X187Y613D01*
X206Y613D02*
X211Y613D01*
X235Y613D02*
X246Y613D01*
X269Y613D02*
X275Y613D01*
X281Y613D02*
X287Y613D01*
X323Y613D02*
X325Y613D01*
X417Y613D02*
X422Y613D01*
X460Y613D02*
X466Y613D01*
X481Y613D02*
X485Y613D01*
X498Y613D02*
X503Y613D01*
X547Y613D02*
X553Y613D01*
X567Y613D02*
X572Y613D01*
X579Y613D02*
X584Y613D01*
X592Y613D02*
X597Y613D01*
X611Y613D02*
X616Y613D01*
X635Y613D02*
X640Y613D01*
X654Y613D02*
X659Y613D01*
X666Y613D02*
X672Y613D01*
X679Y613D02*
X684Y613D01*
X722Y613D02*
X727Y613D01*
X765Y613D02*
X771Y613D01*
X785Y613D02*
X791Y613D01*
X809Y613D02*
X814Y613D01*
X841Y613D02*
X846Y613D01*
X120Y612D02*
X126Y612D01*
X182Y612D02*
X187Y612D01*
X206Y612D02*
X211Y612D01*
X236Y612D02*
X245Y612D01*
X269Y612D02*
X275Y612D01*
X281Y612D02*
X287Y612D01*
X323Y612D02*
X325Y612D01*
X417Y612D02*
X422Y612D01*
X460Y612D02*
X465Y612D01*
X480Y612D02*
X485Y612D01*
X498Y612D02*
X503Y612D01*
X547Y612D02*
X553Y612D01*
X567Y612D02*
X572Y612D01*
X579Y612D02*
X584Y612D01*
X592Y612D02*
X597Y612D01*
X611Y612D02*
X617Y612D01*
X634Y612D02*
X640Y612D01*
X654Y612D02*
X659Y612D01*
X666Y612D02*
X672Y612D01*
X679Y612D02*
X684Y612D01*
X722Y612D02*
X727Y612D01*
X765Y612D02*
X771Y612D01*
X785Y612D02*
X791Y612D01*
X809Y612D02*
X814Y612D01*
X841Y612D02*
X846Y612D01*
X119Y611D02*
X125Y611D01*
X182Y611D02*
X187Y611D01*
X206Y611D02*
X211Y611D01*
X238Y611D02*
X243Y611D01*
X269Y611D02*
X275Y611D01*
X281Y611D02*
X287Y611D01*
X323Y611D02*
X325Y611D01*
X417Y611D02*
X422Y611D01*
X458Y611D02*
X465Y611D01*
X480Y611D02*
X486Y611D01*
X498Y611D02*
X503Y611D01*
X546Y611D02*
X552Y611D01*
X567Y611D02*
X572Y611D01*
X579Y611D02*
X584Y611D01*
X592Y611D02*
X597Y611D01*
X611Y611D02*
X618Y611D01*
X633Y611D02*
X639Y611D01*
X654Y611D02*
X659Y611D01*
X666Y611D02*
X672Y611D01*
X679Y611D02*
X684Y611D01*
X722Y611D02*
X727Y611D01*
X764Y611D02*
X770Y611D01*
X785Y611D02*
X791Y611D01*
X809Y611D02*
X814Y611D01*
X841Y611D02*
X846Y611D01*
X118Y610D02*
X125Y610D01*
X182Y610D02*
X187Y610D01*
X206Y610D02*
X211Y610D01*
X269Y610D02*
X275Y610D01*
X281Y610D02*
X287Y610D01*
X323Y610D02*
X325Y610D01*
X417Y610D02*
X422Y610D01*
X457Y610D02*
X465Y610D01*
X480Y610D02*
X487Y610D01*
X497Y610D02*
X503Y610D01*
X544Y610D02*
X552Y610D01*
X567Y610D02*
X572Y610D01*
X579Y610D02*
X584Y610D01*
X592Y610D02*
X597Y610D01*
X612Y610D02*
X619Y610D01*
X631Y610D02*
X639Y610D01*
X654Y610D02*
X659Y610D01*
X666Y610D02*
X672Y610D01*
X679Y610D02*
X684Y610D01*
X722Y610D02*
X727Y610D01*
X762Y610D02*
X770Y610D01*
X785Y610D02*
X790Y610D01*
X809Y610D02*
X814Y610D01*
X841Y610D02*
X846Y610D01*
X104Y609D02*
X124Y609D01*
X182Y609D02*
X211Y609D01*
X269Y609D02*
X297Y609D01*
X417Y609D02*
X422Y609D01*
X438Y609D02*
X464Y609D01*
X481Y609D02*
X503Y609D01*
X525Y609D02*
X551Y609D01*
X567Y609D02*
X572Y609D01*
X579Y609D02*
X584Y609D01*
X592Y609D02*
X597Y609D01*
X613Y609D02*
X638Y609D01*
X654Y609D02*
X659Y609D01*
X666Y609D02*
X672Y609D01*
X679Y609D02*
X684Y609D01*
X722Y609D02*
X727Y609D01*
X743Y609D02*
X769Y609D01*
X785Y609D02*
X790Y609D01*
X809Y609D02*
X814Y609D01*
X841Y609D02*
X846Y609D01*
X103Y608D02*
X124Y608D01*
X182Y608D02*
X211Y608D01*
X269Y608D02*
X298Y608D01*
X417Y608D02*
X422Y608D01*
X437Y608D02*
X463Y608D01*
X481Y608D02*
X502Y608D01*
X524Y608D02*
X550Y608D01*
X567Y608D02*
X572Y608D01*
X579Y608D02*
X584Y608D01*
X592Y608D02*
X597Y608D01*
X614Y608D02*
X638Y608D01*
X654Y608D02*
X659Y608D01*
X666Y608D02*
X672Y608D01*
X679Y608D02*
X684Y608D01*
X722Y608D02*
X727Y608D01*
X742Y608D02*
X768Y608D01*
X785Y608D02*
X790Y608D01*
X809Y608D02*
X814Y608D01*
X841Y608D02*
X846Y608D01*
X102Y607D02*
X123Y607D01*
X183Y607D02*
X211Y607D01*
X269Y607D02*
X298Y607D01*
X417Y607D02*
X422Y607D01*
X437Y607D02*
X462Y607D01*
X482Y607D02*
X501Y607D01*
X524Y607D02*
X549Y607D01*
X567Y607D02*
X572Y607D01*
X579Y607D02*
X584Y607D01*
X592Y607D02*
X597Y607D01*
X615Y607D02*
X636Y607D01*
X654Y607D02*
X659Y607D01*
X666Y607D02*
X672Y607D01*
X679Y607D02*
X684Y607D01*
X722Y607D02*
X727Y607D01*
X742Y607D02*
X767Y607D01*
X785Y607D02*
X790Y607D01*
X809Y607D02*
X814Y607D01*
X841Y607D02*
X846Y607D01*
X102Y606D02*
X122Y606D01*
X183Y606D02*
X210Y606D01*
X269Y606D02*
X298Y606D01*
X417Y606D02*
X422Y606D01*
X437Y606D02*
X461Y606D01*
X483Y606D02*
X501Y606D01*
X524Y606D02*
X548Y606D01*
X567Y606D02*
X572Y606D01*
X579Y606D02*
X584Y606D01*
X592Y606D02*
X597Y606D01*
X616Y606D02*
X635Y606D01*
X654Y606D02*
X659Y606D01*
X667Y606D02*
X672Y606D01*
X679Y606D02*
X684Y606D01*
X722Y606D02*
X727Y606D01*
X742Y606D02*
X766Y606D01*
X785Y606D02*
X790Y606D01*
X809Y606D02*
X814Y606D01*
X841Y606D02*
X846Y606D01*
X103Y605D02*
X121Y605D01*
X184Y605D02*
X209Y605D01*
X270Y605D02*
X298Y605D01*
X311Y605D02*
X337Y605D01*
X417Y605D02*
X422Y605D01*
X437Y605D02*
X460Y605D01*
X484Y605D02*
X499Y605D01*
X524Y605D02*
X547Y605D01*
X567Y605D02*
X572Y605D01*
X580Y605D02*
X584Y605D01*
X592Y605D02*
X597Y605D01*
X617Y605D02*
X634Y605D01*
X654Y605D02*
X659Y605D01*
X667Y605D02*
X671Y605D01*
X679Y605D02*
X684Y605D01*
X722Y605D02*
X727Y605D01*
X742Y605D02*
X765Y605D01*
X786Y605D02*
X790Y605D01*
X810Y605D02*
X814Y605D01*
X841Y605D02*
X846Y605D01*
X104Y604D02*
X119Y604D01*
X186Y604D02*
X208Y604D01*
X271Y604D02*
X297Y604D01*
X311Y604D02*
X337Y604D01*
X418Y604D02*
X421Y604D01*
X438Y604D02*
X458Y604D01*
X486Y604D02*
X498Y604D01*
X525Y604D02*
X545Y604D01*
X568Y604D02*
X571Y604D01*
X581Y604D02*
X583Y604D01*
X593Y604D02*
X596Y604D01*
X619Y604D02*
X632Y604D01*
X655Y604D02*
X658Y604D01*
X668Y604D02*
X670Y604D01*
X680Y604D02*
X683Y604D01*
X723Y604D02*
X726Y604D01*
X743Y604D02*
X763Y604D01*
X786Y604D02*
X789Y604D01*
X810Y604D02*
X813Y604D01*
X842Y604D02*
X845Y604D01*
X114Y586D02*
X121Y586D01*
X143Y586D02*
X163Y586D01*
X186Y586D02*
X206Y586D01*
X273Y586D02*
X296Y586D01*
X787Y586D02*
X788Y586D01*
X811Y586D02*
X812Y586D01*
X113Y585D02*
X123Y585D01*
X141Y585D02*
X164Y585D01*
X184Y585D02*
X208Y585D01*
X271Y585D02*
X297Y585D01*
X785Y585D02*
X789Y585D01*
X809Y585D02*
X813Y585D01*
X113Y584D02*
X123Y584D01*
X139Y584D02*
X166Y584D01*
X183Y584D02*
X209Y584D01*
X270Y584D02*
X298Y584D01*
X785Y584D02*
X790Y584D01*
X809Y584D02*
X814Y584D01*
X112Y583D02*
X123Y583D01*
X139Y583D02*
X166Y583D01*
X182Y583D02*
X210Y583D01*
X270Y583D02*
X298Y583D01*
X499Y583D02*
X501Y583D01*
X785Y583D02*
X790Y583D01*
X809Y583D02*
X814Y583D01*
X112Y582D02*
X124Y582D01*
X138Y582D02*
X167Y582D01*
X182Y582D02*
X210Y582D01*
X269Y582D02*
X298Y582D01*
X498Y582D02*
X502Y582D01*
X785Y582D02*
X790Y582D01*
X809Y582D02*
X814Y582D01*
X97Y581D02*
X97Y581D01*
X112Y581D02*
X124Y581D01*
X138Y581D02*
X167Y581D01*
X182Y581D02*
X211Y581D01*
X269Y581D02*
X297Y581D01*
X498Y581D02*
X502Y581D01*
X785Y581D02*
X790Y581D01*
X809Y581D02*
X814Y581D01*
X95Y580D02*
X99Y580D01*
X112Y580D02*
X124Y580D01*
X138Y580D02*
X143Y580D01*
X162Y580D02*
X167Y580D01*
X182Y580D02*
X187Y580D01*
X205Y580D02*
X211Y580D01*
X269Y580D02*
X274Y580D01*
X497Y580D02*
X503Y580D01*
X785Y580D02*
X790Y580D01*
X809Y580D02*
X814Y580D01*
X95Y579D02*
X100Y579D01*
X112Y579D02*
X124Y579D01*
X138Y579D02*
X143Y579D01*
X162Y579D02*
X167Y579D01*
X182Y579D02*
X187Y579D01*
X206Y579D02*
X211Y579D01*
X269Y579D02*
X274Y579D01*
X497Y579D02*
X503Y579D01*
X785Y579D02*
X790Y579D01*
X809Y579D02*
X814Y579D01*
X94Y578D02*
X100Y578D01*
X112Y578D02*
X123Y578D01*
X138Y578D02*
X143Y578D01*
X162Y578D02*
X167Y578D01*
X182Y578D02*
X187Y578D01*
X206Y578D02*
X211Y578D01*
X269Y578D02*
X274Y578D01*
X497Y578D02*
X503Y578D01*
X785Y578D02*
X790Y578D01*
X809Y578D02*
X814Y578D01*
X95Y577D02*
X101Y577D01*
X113Y577D02*
X123Y577D01*
X138Y577D02*
X143Y577D01*
X162Y577D02*
X167Y577D01*
X182Y577D02*
X187Y577D01*
X206Y577D02*
X211Y577D01*
X269Y577D02*
X274Y577D01*
X497Y577D02*
X503Y577D01*
X785Y577D02*
X790Y577D01*
X809Y577D02*
X814Y577D01*
X95Y576D02*
X102Y576D01*
X113Y576D02*
X123Y576D01*
X138Y576D02*
X143Y576D01*
X162Y576D02*
X167Y576D01*
X182Y576D02*
X187Y576D01*
X206Y576D02*
X211Y576D01*
X269Y576D02*
X274Y576D01*
X497Y576D02*
X503Y576D01*
X785Y576D02*
X790Y576D01*
X809Y576D02*
X814Y576D01*
X96Y575D02*
X103Y575D01*
X115Y575D02*
X121Y575D01*
X138Y575D02*
X143Y575D01*
X162Y575D02*
X167Y575D01*
X182Y575D02*
X187Y575D01*
X206Y575D02*
X211Y575D01*
X269Y575D02*
X274Y575D01*
X323Y575D02*
X324Y575D01*
X497Y575D02*
X503Y575D01*
X785Y575D02*
X790Y575D01*
X809Y575D02*
X814Y575D01*
X97Y574D02*
X103Y574D01*
X138Y574D02*
X143Y574D01*
X162Y574D02*
X167Y574D01*
X182Y574D02*
X187Y574D01*
X206Y574D02*
X211Y574D01*
X269Y574D02*
X274Y574D01*
X323Y574D02*
X324Y574D01*
X497Y574D02*
X503Y574D01*
X785Y574D02*
X790Y574D01*
X809Y574D02*
X814Y574D01*
X97Y573D02*
X104Y573D01*
X138Y573D02*
X143Y573D01*
X162Y573D02*
X167Y573D01*
X182Y573D02*
X187Y573D01*
X206Y573D02*
X211Y573D01*
X269Y573D02*
X274Y573D01*
X323Y573D02*
X324Y573D01*
X399Y573D02*
X408Y573D01*
X418Y573D02*
X420Y573D01*
X445Y573D02*
X456Y573D01*
X484Y573D02*
X507Y573D01*
X532Y573D02*
X543Y573D01*
X573Y573D02*
X575Y573D01*
X584Y573D02*
X587Y573D01*
X593Y573D02*
X595Y573D01*
X619Y573D02*
X631Y573D01*
X660Y573D02*
X669Y573D01*
X680Y573D02*
X681Y573D01*
X699Y573D02*
X701Y573D01*
X709Y573D02*
X718Y573D01*
X743Y573D02*
X744Y573D01*
X767Y573D02*
X768Y573D01*
X785Y573D02*
X790Y573D01*
X809Y573D02*
X814Y573D01*
X98Y572D02*
X105Y572D01*
X138Y572D02*
X143Y572D01*
X162Y572D02*
X167Y572D01*
X182Y572D02*
X187Y572D01*
X206Y572D02*
X211Y572D01*
X269Y572D02*
X274Y572D01*
X323Y572D02*
X324Y572D01*
X397Y572D02*
X409Y572D01*
X417Y572D02*
X421Y572D01*
X442Y572D02*
X458Y572D01*
X483Y572D02*
X508Y572D01*
X530Y572D02*
X546Y572D01*
X571Y572D02*
X577Y572D01*
X582Y572D02*
X589Y572D01*
X592Y572D02*
X596Y572D01*
X617Y572D02*
X633Y572D01*
X658Y572D02*
X671Y572D01*
X678Y572D02*
X682Y572D01*
X698Y572D02*
X702Y572D01*
X707Y572D02*
X720Y572D01*
X742Y572D02*
X746Y572D01*
X766Y572D02*
X770Y572D01*
X785Y572D02*
X790Y572D01*
X809Y572D02*
X814Y572D01*
X99Y571D02*
X106Y571D01*
X138Y571D02*
X143Y571D01*
X162Y571D02*
X167Y571D01*
X182Y571D02*
X187Y571D01*
X206Y571D02*
X211Y571D01*
X269Y571D02*
X274Y571D01*
X323Y571D02*
X324Y571D01*
X395Y571D02*
X410Y571D01*
X416Y571D02*
X421Y571D01*
X441Y571D02*
X460Y571D01*
X483Y571D02*
X508Y571D01*
X528Y571D02*
X547Y571D01*
X569Y571D02*
X579Y571D01*
X581Y571D02*
X596Y571D01*
X615Y571D02*
X634Y571D01*
X657Y571D02*
X672Y571D01*
X678Y571D02*
X683Y571D01*
X698Y571D02*
X702Y571D01*
X706Y571D02*
X721Y571D01*
X741Y571D02*
X746Y571D01*
X765Y571D02*
X770Y571D01*
X785Y571D02*
X790Y571D01*
X809Y571D02*
X814Y571D01*
X100Y570D02*
X107Y570D01*
X138Y570D02*
X143Y570D01*
X162Y570D02*
X167Y570D01*
X182Y570D02*
X187Y570D01*
X206Y570D02*
X211Y570D01*
X269Y570D02*
X274Y570D01*
X323Y570D02*
X324Y570D01*
X394Y570D02*
X411Y570D01*
X416Y570D02*
X421Y570D01*
X440Y570D02*
X461Y570D01*
X483Y570D02*
X508Y570D01*
X527Y570D02*
X548Y570D01*
X568Y570D02*
X596Y570D01*
X614Y570D02*
X635Y570D01*
X656Y570D02*
X673Y570D01*
X678Y570D02*
X683Y570D01*
X697Y570D02*
X702Y570D01*
X704Y570D02*
X723Y570D01*
X741Y570D02*
X746Y570D01*
X765Y570D02*
X770Y570D01*
X785Y570D02*
X790Y570D01*
X809Y570D02*
X814Y570D01*
X101Y569D02*
X107Y569D01*
X138Y569D02*
X143Y569D01*
X162Y569D02*
X167Y569D01*
X182Y569D02*
X187Y569D01*
X206Y569D02*
X211Y569D01*
X269Y569D02*
X274Y569D01*
X323Y569D02*
X324Y569D01*
X394Y569D02*
X413Y569D01*
X416Y569D02*
X421Y569D01*
X439Y569D02*
X462Y569D01*
X483Y569D02*
X508Y569D01*
X526Y569D02*
X549Y569D01*
X568Y569D02*
X596Y569D01*
X613Y569D02*
X636Y569D01*
X655Y569D02*
X674Y569D01*
X678Y569D02*
X683Y569D01*
X697Y569D02*
X724Y569D01*
X741Y569D02*
X746Y569D01*
X765Y569D02*
X770Y569D01*
X785Y569D02*
X790Y569D01*
X809Y569D02*
X814Y569D01*
X101Y568D02*
X108Y568D01*
X138Y568D02*
X143Y568D01*
X162Y568D02*
X167Y568D01*
X182Y568D02*
X187Y568D01*
X206Y568D02*
X211Y568D01*
X269Y568D02*
X274Y568D01*
X323Y568D02*
X324Y568D01*
X393Y568D02*
X414Y568D01*
X416Y568D02*
X421Y568D01*
X438Y568D02*
X463Y568D01*
X484Y568D02*
X507Y568D01*
X525Y568D02*
X550Y568D01*
X567Y568D02*
X596Y568D01*
X612Y568D02*
X637Y568D01*
X655Y568D02*
X675Y568D01*
X678Y568D02*
X683Y568D01*
X697Y568D02*
X725Y568D01*
X741Y568D02*
X746Y568D01*
X765Y568D02*
X770Y568D01*
X785Y568D02*
X790Y568D01*
X809Y568D02*
X814Y568D01*
X102Y567D02*
X109Y567D01*
X138Y567D02*
X143Y567D01*
X162Y567D02*
X167Y567D01*
X182Y567D02*
X187Y567D01*
X206Y567D02*
X211Y567D01*
X269Y567D02*
X274Y567D01*
X323Y567D02*
X324Y567D01*
X393Y567D02*
X399Y567D01*
X406Y567D02*
X421Y567D01*
X437Y567D02*
X445Y567D01*
X456Y567D02*
X464Y567D01*
X497Y567D02*
X503Y567D01*
X524Y567D02*
X532Y567D01*
X543Y567D02*
X551Y567D01*
X567Y567D02*
X573Y567D01*
X575Y567D02*
X584Y567D01*
X587Y567D02*
X596Y567D01*
X611Y567D02*
X619Y567D01*
X630Y567D02*
X638Y567D01*
X654Y567D02*
X661Y567D01*
X668Y567D02*
X683Y567D01*
X697Y567D02*
X710Y567D01*
X717Y567D02*
X725Y567D01*
X741Y567D02*
X746Y567D01*
X765Y567D02*
X770Y567D01*
X785Y567D02*
X790Y567D01*
X809Y567D02*
X814Y567D01*
X103Y566D02*
X110Y566D01*
X138Y566D02*
X143Y566D01*
X162Y566D02*
X167Y566D01*
X182Y566D02*
X187Y566D01*
X206Y566D02*
X211Y566D01*
X269Y566D02*
X276Y566D01*
X323Y566D02*
X324Y566D01*
X392Y566D02*
X398Y566D01*
X408Y566D02*
X421Y566D01*
X437Y566D02*
X443Y566D01*
X457Y566D02*
X464Y566D01*
X497Y566D02*
X503Y566D01*
X524Y566D02*
X530Y566D01*
X545Y566D02*
X551Y566D01*
X567Y566D02*
X572Y566D01*
X576Y566D02*
X584Y566D01*
X588Y566D02*
X596Y566D01*
X611Y566D02*
X618Y566D01*
X632Y566D02*
X639Y566D01*
X654Y566D02*
X660Y566D01*
X669Y566D02*
X683Y566D01*
X697Y566D02*
X708Y566D01*
X719Y566D02*
X726Y566D01*
X741Y566D02*
X746Y566D01*
X765Y566D02*
X770Y566D01*
X785Y566D02*
X790Y566D01*
X808Y566D02*
X814Y566D01*
X104Y565D02*
X110Y565D01*
X138Y565D02*
X143Y565D01*
X162Y565D02*
X167Y565D01*
X182Y565D02*
X187Y565D01*
X206Y565D02*
X211Y565D01*
X270Y565D02*
X291Y565D01*
X323Y565D02*
X324Y565D01*
X392Y565D02*
X397Y565D01*
X409Y565D02*
X421Y565D01*
X436Y565D02*
X442Y565D01*
X458Y565D02*
X465Y565D01*
X497Y565D02*
X503Y565D01*
X523Y565D02*
X529Y565D01*
X546Y565D02*
X552Y565D01*
X567Y565D02*
X572Y565D01*
X577Y565D02*
X584Y565D01*
X589Y565D02*
X596Y565D01*
X611Y565D02*
X617Y565D01*
X633Y565D02*
X639Y565D01*
X654Y565D02*
X659Y565D01*
X670Y565D02*
X683Y565D01*
X697Y565D02*
X707Y565D01*
X720Y565D02*
X726Y565D01*
X741Y565D02*
X746Y565D01*
X765Y565D02*
X770Y565D01*
X785Y565D02*
X814Y565D01*
X104Y564D02*
X111Y564D01*
X138Y564D02*
X143Y564D01*
X162Y564D02*
X167Y564D01*
X182Y564D02*
X187Y564D01*
X206Y564D02*
X211Y564D01*
X270Y564D02*
X291Y564D01*
X323Y564D02*
X324Y564D01*
X392Y564D02*
X397Y564D01*
X410Y564D02*
X421Y564D01*
X436Y564D02*
X441Y564D01*
X459Y564D02*
X465Y564D01*
X497Y564D02*
X503Y564D01*
X523Y564D02*
X529Y564D01*
X547Y564D02*
X552Y564D01*
X567Y564D02*
X572Y564D01*
X578Y564D02*
X584Y564D01*
X590Y564D02*
X596Y564D01*
X610Y564D02*
X616Y564D01*
X634Y564D02*
X639Y564D01*
X654Y564D02*
X659Y564D01*
X672Y564D02*
X683Y564D01*
X697Y564D02*
X706Y564D01*
X721Y564D02*
X726Y564D01*
X741Y564D02*
X747Y564D01*
X764Y564D02*
X770Y564D01*
X785Y564D02*
X814Y564D01*
X105Y563D02*
X112Y563D01*
X138Y563D02*
X143Y563D01*
X162Y563D02*
X167Y563D01*
X182Y563D02*
X187Y563D01*
X206Y563D02*
X211Y563D01*
X271Y563D02*
X292Y563D01*
X323Y563D02*
X324Y563D01*
X392Y563D02*
X397Y563D01*
X411Y563D02*
X421Y563D01*
X436Y563D02*
X441Y563D01*
X460Y563D02*
X465Y563D01*
X497Y563D02*
X503Y563D01*
X523Y563D02*
X528Y563D01*
X547Y563D02*
X552Y563D01*
X567Y563D02*
X572Y563D01*
X579Y563D02*
X584Y563D01*
X591Y563D02*
X596Y563D01*
X610Y563D02*
X615Y563D01*
X634Y563D02*
X639Y563D01*
X654Y563D02*
X659Y563D01*
X673Y563D02*
X683Y563D01*
X697Y563D02*
X705Y563D01*
X721Y563D02*
X726Y563D01*
X742Y563D02*
X747Y563D01*
X764Y563D02*
X769Y563D01*
X785Y563D02*
X814Y563D01*
X106Y562D02*
X113Y562D01*
X138Y562D02*
X143Y562D01*
X162Y562D02*
X167Y562D01*
X182Y562D02*
X187Y562D01*
X206Y562D02*
X211Y562D01*
X271Y562D02*
X292Y562D01*
X323Y562D02*
X324Y562D01*
X392Y562D02*
X397Y562D01*
X412Y562D02*
X421Y562D01*
X436Y562D02*
X441Y562D01*
X460Y562D02*
X465Y562D01*
X497Y562D02*
X503Y562D01*
X523Y562D02*
X528Y562D01*
X547Y562D02*
X552Y562D01*
X567Y562D02*
X572Y562D01*
X579Y562D02*
X584Y562D01*
X591Y562D02*
X596Y562D01*
X610Y562D02*
X615Y562D01*
X634Y562D02*
X639Y562D01*
X654Y562D02*
X659Y562D01*
X674Y562D02*
X683Y562D01*
X697Y562D02*
X704Y562D01*
X721Y562D02*
X727Y562D01*
X742Y562D02*
X748Y562D01*
X763Y562D02*
X769Y562D01*
X785Y562D02*
X814Y562D01*
X107Y561D02*
X114Y561D01*
X138Y561D02*
X143Y561D01*
X162Y561D02*
X167Y561D01*
X182Y561D02*
X187Y561D01*
X206Y561D02*
X211Y561D01*
X270Y561D02*
X291Y561D01*
X310Y561D02*
X336Y561D01*
X393Y561D02*
X397Y561D01*
X413Y561D02*
X421Y561D01*
X436Y561D02*
X441Y561D01*
X460Y561D02*
X465Y561D01*
X497Y561D02*
X503Y561D01*
X523Y561D02*
X528Y561D01*
X547Y561D02*
X552Y561D01*
X567Y561D02*
X572Y561D01*
X579Y561D02*
X584Y561D01*
X591Y561D02*
X596Y561D01*
X610Y561D02*
X615Y561D01*
X634Y561D02*
X639Y561D01*
X654Y561D02*
X658Y561D01*
X675Y561D02*
X683Y561D01*
X697Y561D02*
X703Y561D01*
X721Y561D02*
X727Y561D01*
X743Y561D02*
X748Y561D01*
X763Y561D02*
X769Y561D01*
X785Y561D02*
X814Y561D01*
X108Y560D02*
X114Y560D01*
X138Y560D02*
X143Y560D01*
X162Y560D02*
X167Y560D01*
X182Y560D02*
X187Y560D01*
X206Y560D02*
X211Y560D01*
X269Y560D02*
X290Y560D01*
X310Y560D02*
X337Y560D01*
X394Y560D02*
X396Y560D01*
X415Y560D02*
X421Y560D01*
X436Y560D02*
X441Y560D01*
X460Y560D02*
X465Y560D01*
X497Y560D02*
X503Y560D01*
X523Y560D02*
X528Y560D01*
X547Y560D02*
X552Y560D01*
X567Y560D02*
X572Y560D01*
X579Y560D02*
X584Y560D01*
X591Y560D02*
X596Y560D01*
X610Y560D02*
X615Y560D01*
X634Y560D02*
X639Y560D01*
X655Y560D02*
X657Y560D01*
X676Y560D02*
X683Y560D01*
X697Y560D02*
X703Y560D01*
X721Y560D02*
X727Y560D01*
X743Y560D02*
X749Y560D01*
X762Y560D02*
X768Y560D01*
X785Y560D02*
X814Y560D01*
X108Y559D02*
X115Y559D01*
X138Y559D02*
X143Y559D01*
X162Y559D02*
X167Y559D01*
X182Y559D02*
X187Y559D01*
X206Y559D02*
X211Y559D01*
X269Y559D02*
X275Y559D01*
X312Y559D02*
X335Y559D01*
X416Y559D02*
X421Y559D01*
X436Y559D02*
X441Y559D01*
X460Y559D02*
X465Y559D01*
X497Y559D02*
X503Y559D01*
X523Y559D02*
X528Y559D01*
X547Y559D02*
X552Y559D01*
X567Y559D02*
X572Y559D01*
X579Y559D02*
X584Y559D01*
X591Y559D02*
X596Y559D01*
X610Y559D02*
X615Y559D01*
X634Y559D02*
X639Y559D01*
X677Y559D02*
X683Y559D01*
X697Y559D02*
X702Y559D01*
X721Y559D02*
X727Y559D01*
X743Y559D02*
X749Y559D01*
X762Y559D02*
X768Y559D01*
X785Y559D02*
X790Y559D01*
X809Y559D02*
X814Y559D01*
X109Y558D02*
X116Y558D01*
X138Y558D02*
X143Y558D01*
X162Y558D02*
X167Y558D01*
X182Y558D02*
X187Y558D01*
X206Y558D02*
X211Y558D01*
X269Y558D02*
X274Y558D01*
X323Y558D02*
X324Y558D01*
X416Y558D02*
X421Y558D01*
X436Y558D02*
X441Y558D01*
X459Y558D02*
X465Y558D01*
X497Y558D02*
X503Y558D01*
X523Y558D02*
X528Y558D01*
X547Y558D02*
X552Y558D01*
X567Y558D02*
X572Y558D01*
X579Y558D02*
X584Y558D01*
X591Y558D02*
X596Y558D01*
X610Y558D02*
X615Y558D01*
X634Y558D02*
X639Y558D01*
X678Y558D02*
X683Y558D01*
X697Y558D02*
X702Y558D01*
X721Y558D02*
X727Y558D01*
X744Y558D02*
X750Y558D01*
X762Y558D02*
X767Y558D01*
X785Y558D02*
X790Y558D01*
X809Y558D02*
X814Y558D01*
X110Y557D02*
X117Y557D01*
X138Y557D02*
X143Y557D01*
X162Y557D02*
X167Y557D01*
X182Y557D02*
X187Y557D01*
X206Y557D02*
X211Y557D01*
X235Y557D02*
X244Y557D01*
X269Y557D02*
X274Y557D01*
X323Y557D02*
X324Y557D01*
X416Y557D02*
X421Y557D01*
X436Y557D02*
X465Y557D01*
X497Y557D02*
X503Y557D01*
X523Y557D02*
X552Y557D01*
X567Y557D02*
X572Y557D01*
X579Y557D02*
X584Y557D01*
X591Y557D02*
X596Y557D01*
X610Y557D02*
X615Y557D01*
X634Y557D02*
X639Y557D01*
X678Y557D02*
X683Y557D01*
X697Y557D02*
X702Y557D01*
X721Y557D02*
X727Y557D01*
X744Y557D02*
X750Y557D01*
X761Y557D02*
X767Y557D01*
X785Y557D02*
X790Y557D01*
X809Y557D02*
X814Y557D01*
X111Y556D02*
X117Y556D01*
X138Y556D02*
X143Y556D01*
X162Y556D02*
X167Y556D01*
X182Y556D02*
X187Y556D01*
X206Y556D02*
X211Y556D01*
X234Y556D02*
X245Y556D01*
X269Y556D02*
X274Y556D01*
X323Y556D02*
X324Y556D01*
X416Y556D02*
X421Y556D01*
X436Y556D02*
X465Y556D01*
X497Y556D02*
X503Y556D01*
X523Y556D02*
X552Y556D01*
X567Y556D02*
X572Y556D01*
X579Y556D02*
X584Y556D01*
X591Y556D02*
X596Y556D01*
X610Y556D02*
X615Y556D01*
X634Y556D02*
X639Y556D01*
X678Y556D02*
X683Y556D01*
X697Y556D02*
X702Y556D01*
X721Y556D02*
X727Y556D01*
X745Y556D02*
X750Y556D01*
X761Y556D02*
X766Y556D01*
X785Y556D02*
X790Y556D01*
X809Y556D02*
X814Y556D01*
X111Y555D02*
X118Y555D01*
X138Y555D02*
X143Y555D01*
X162Y555D02*
X167Y555D01*
X182Y555D02*
X187Y555D01*
X206Y555D02*
X211Y555D01*
X234Y555D02*
X245Y555D01*
X269Y555D02*
X274Y555D01*
X323Y555D02*
X324Y555D01*
X416Y555D02*
X421Y555D01*
X436Y555D02*
X465Y555D01*
X497Y555D02*
X503Y555D01*
X523Y555D02*
X552Y555D01*
X567Y555D02*
X572Y555D01*
X579Y555D02*
X584Y555D01*
X591Y555D02*
X596Y555D01*
X610Y555D02*
X615Y555D01*
X634Y555D02*
X639Y555D01*
X678Y555D02*
X683Y555D01*
X697Y555D02*
X703Y555D01*
X721Y555D02*
X727Y555D01*
X745Y555D02*
X751Y555D01*
X760Y555D02*
X766Y555D01*
X785Y555D02*
X790Y555D01*
X809Y555D02*
X814Y555D01*
X112Y554D02*
X119Y554D01*
X138Y554D02*
X143Y554D01*
X162Y554D02*
X167Y554D01*
X182Y554D02*
X187Y554D01*
X206Y554D02*
X211Y554D01*
X234Y554D02*
X245Y554D01*
X269Y554D02*
X274Y554D01*
X323Y554D02*
X324Y554D01*
X416Y554D02*
X421Y554D01*
X436Y554D02*
X465Y554D01*
X497Y554D02*
X503Y554D01*
X523Y554D02*
X552Y554D01*
X567Y554D02*
X572Y554D01*
X579Y554D02*
X584Y554D01*
X591Y554D02*
X596Y554D01*
X610Y554D02*
X615Y554D01*
X634Y554D02*
X639Y554D01*
X678Y554D02*
X683Y554D01*
X697Y554D02*
X703Y554D01*
X721Y554D02*
X727Y554D01*
X746Y554D02*
X751Y554D01*
X760Y554D02*
X766Y554D01*
X785Y554D02*
X790Y554D01*
X809Y554D02*
X814Y554D01*
X113Y553D02*
X120Y553D01*
X138Y553D02*
X143Y553D01*
X162Y553D02*
X167Y553D01*
X182Y553D02*
X187Y553D01*
X206Y553D02*
X211Y553D01*
X234Y553D02*
X245Y553D01*
X269Y553D02*
X274Y553D01*
X323Y553D02*
X324Y553D01*
X416Y553D02*
X421Y553D01*
X437Y553D02*
X465Y553D01*
X497Y553D02*
X503Y553D01*
X524Y553D02*
X552Y553D01*
X567Y553D02*
X572Y553D01*
X579Y553D02*
X584Y553D01*
X591Y553D02*
X596Y553D01*
X610Y553D02*
X615Y553D01*
X634Y553D02*
X639Y553D01*
X678Y553D02*
X683Y553D01*
X697Y553D02*
X703Y553D01*
X721Y553D02*
X727Y553D01*
X746Y553D02*
X752Y553D01*
X759Y553D02*
X765Y553D01*
X785Y553D02*
X790Y553D01*
X809Y553D02*
X814Y553D01*
X114Y552D02*
X121Y552D01*
X138Y552D02*
X143Y552D01*
X162Y552D02*
X167Y552D01*
X182Y552D02*
X187Y552D01*
X206Y552D02*
X211Y552D01*
X234Y552D02*
X245Y552D01*
X269Y552D02*
X274Y552D01*
X323Y552D02*
X324Y552D01*
X416Y552D02*
X421Y552D01*
X438Y552D02*
X465Y552D01*
X497Y552D02*
X503Y552D01*
X525Y552D02*
X552Y552D01*
X567Y552D02*
X572Y552D01*
X579Y552D02*
X584Y552D01*
X591Y552D02*
X596Y552D01*
X610Y552D02*
X615Y552D01*
X634Y552D02*
X639Y552D01*
X678Y552D02*
X683Y552D01*
X697Y552D02*
X705Y552D01*
X721Y552D02*
X726Y552D01*
X746Y552D02*
X752Y552D01*
X759Y552D02*
X765Y552D01*
X785Y552D02*
X790Y552D01*
X809Y552D02*
X814Y552D01*
X115Y551D02*
X121Y551D01*
X138Y551D02*
X143Y551D01*
X162Y551D02*
X167Y551D01*
X182Y551D02*
X187Y551D01*
X206Y551D02*
X211Y551D01*
X234Y551D02*
X245Y551D01*
X269Y551D02*
X274Y551D01*
X323Y551D02*
X324Y551D01*
X416Y551D02*
X421Y551D01*
X460Y551D02*
X465Y551D01*
X497Y551D02*
X503Y551D01*
X547Y551D02*
X552Y551D01*
X567Y551D02*
X572Y551D01*
X579Y551D02*
X584Y551D01*
X591Y551D02*
X596Y551D01*
X610Y551D02*
X615Y551D01*
X634Y551D02*
X639Y551D01*
X678Y551D02*
X683Y551D01*
X697Y551D02*
X706Y551D01*
X721Y551D02*
X726Y551D01*
X747Y551D02*
X753Y551D01*
X759Y551D02*
X764Y551D01*
X785Y551D02*
X790Y551D01*
X809Y551D02*
X814Y551D01*
X96Y550D02*
X104Y550D01*
X115Y550D02*
X122Y550D01*
X138Y550D02*
X143Y550D01*
X162Y550D02*
X167Y550D01*
X182Y550D02*
X187Y550D01*
X206Y550D02*
X211Y550D01*
X234Y550D02*
X245Y550D01*
X269Y550D02*
X274Y550D01*
X323Y550D02*
X324Y550D01*
X416Y550D02*
X421Y550D01*
X460Y550D02*
X465Y550D01*
X481Y550D02*
X483Y550D01*
X497Y550D02*
X503Y550D01*
X547Y550D02*
X552Y550D01*
X566Y550D02*
X572Y550D01*
X579Y550D02*
X584Y550D01*
X591Y550D02*
X596Y550D01*
X610Y550D02*
X615Y550D01*
X634Y550D02*
X639Y550D01*
X678Y550D02*
X683Y550D01*
X697Y550D02*
X707Y550D01*
X720Y550D02*
X726Y550D01*
X747Y550D02*
X753Y550D01*
X758Y550D02*
X764Y550D01*
X785Y550D02*
X790Y550D01*
X809Y550D02*
X814Y550D01*
X95Y549D02*
X105Y549D01*
X116Y549D02*
X123Y549D01*
X138Y549D02*
X143Y549D01*
X162Y549D02*
X167Y549D01*
X182Y549D02*
X187Y549D01*
X206Y549D02*
X211Y549D01*
X234Y549D02*
X245Y549D01*
X269Y549D02*
X274Y549D01*
X323Y549D02*
X324Y549D01*
X416Y549D02*
X421Y549D01*
X460Y549D02*
X465Y549D01*
X480Y549D02*
X484Y549D01*
X497Y549D02*
X503Y549D01*
X547Y549D02*
X552Y549D01*
X566Y549D02*
X572Y549D01*
X579Y549D02*
X584Y549D01*
X591Y549D02*
X596Y549D01*
X610Y549D02*
X616Y549D01*
X634Y549D02*
X639Y549D01*
X678Y549D02*
X683Y549D01*
X697Y549D02*
X708Y549D01*
X719Y549D02*
X726Y549D01*
X748Y549D02*
X754Y549D01*
X758Y549D02*
X763Y549D01*
X785Y549D02*
X790Y549D01*
X809Y549D02*
X814Y549D01*
X95Y548D02*
X105Y548D01*
X117Y548D02*
X123Y548D01*
X138Y548D02*
X143Y548D01*
X162Y548D02*
X167Y548D01*
X182Y548D02*
X187Y548D01*
X206Y548D02*
X211Y548D01*
X235Y548D02*
X245Y548D01*
X269Y548D02*
X274Y548D01*
X323Y548D02*
X324Y548D01*
X416Y548D02*
X421Y548D01*
X459Y548D02*
X465Y548D01*
X480Y548D02*
X484Y548D01*
X497Y548D02*
X503Y548D01*
X546Y548D02*
X552Y548D01*
X566Y548D02*
X571Y548D01*
X579Y548D02*
X584Y548D01*
X591Y548D02*
X596Y548D01*
X610Y548D02*
X616Y548D01*
X633Y548D02*
X639Y548D01*
X678Y548D02*
X683Y548D01*
X697Y548D02*
X709Y548D01*
X718Y548D02*
X725Y548D01*
X748Y548D02*
X754Y548D01*
X757Y548D02*
X763Y548D01*
X785Y548D02*
X790Y548D01*
X809Y548D02*
X814Y548D01*
X94Y547D02*
X106Y547D01*
X118Y547D02*
X123Y547D01*
X138Y547D02*
X143Y547D01*
X162Y547D02*
X167Y547D01*
X182Y547D02*
X187Y547D01*
X206Y547D02*
X211Y547D01*
X236Y547D02*
X243Y547D01*
X269Y547D02*
X274Y547D01*
X323Y547D02*
X324Y547D01*
X416Y547D02*
X421Y547D01*
X458Y547D02*
X464Y547D01*
X479Y547D02*
X485Y547D01*
X497Y547D02*
X502Y547D01*
X545Y547D02*
X552Y547D01*
X566Y547D02*
X571Y547D01*
X579Y547D02*
X584Y547D01*
X591Y547D02*
X596Y547D01*
X611Y547D02*
X617Y547D01*
X632Y547D02*
X639Y547D01*
X678Y547D02*
X683Y547D01*
X697Y547D02*
X725Y547D01*
X749Y547D02*
X762Y547D01*
X785Y547D02*
X790Y547D01*
X809Y547D02*
X814Y547D01*
X94Y546D02*
X106Y546D01*
X118Y546D02*
X123Y546D01*
X138Y546D02*
X143Y546D01*
X162Y546D02*
X167Y546D01*
X182Y546D02*
X187Y546D01*
X206Y546D02*
X211Y546D01*
X269Y546D02*
X274Y546D01*
X323Y546D02*
X324Y546D01*
X416Y546D02*
X421Y546D01*
X457Y546D02*
X464Y546D01*
X480Y546D02*
X486Y546D01*
X497Y546D02*
X502Y546D01*
X544Y546D02*
X551Y546D01*
X566Y546D02*
X571Y546D01*
X579Y546D02*
X584Y546D01*
X591Y546D02*
X596Y546D01*
X611Y546D02*
X618Y546D01*
X631Y546D02*
X638Y546D01*
X678Y546D02*
X683Y546D01*
X697Y546D02*
X724Y546D01*
X749Y546D02*
X762Y546D01*
X785Y546D02*
X790Y546D01*
X809Y546D02*
X814Y546D01*
X94Y545D02*
X106Y545D01*
X119Y545D02*
X123Y545D01*
X138Y545D02*
X167Y545D01*
X182Y545D02*
X211Y545D01*
X269Y545D02*
X295Y545D01*
X416Y545D02*
X421Y545D01*
X438Y545D02*
X464Y545D01*
X480Y545D02*
X502Y545D01*
X526Y545D02*
X551Y545D01*
X566Y545D02*
X571Y545D01*
X579Y545D02*
X584Y545D01*
X591Y545D02*
X596Y545D01*
X612Y545D02*
X638Y545D01*
X678Y545D02*
X683Y545D01*
X697Y545D02*
X723Y545D01*
X750Y545D02*
X762Y545D01*
X785Y545D02*
X790Y545D01*
X809Y545D02*
X814Y545D01*
X94Y544D02*
X106Y544D01*
X138Y544D02*
X167Y544D01*
X182Y544D02*
X211Y544D01*
X269Y544D02*
X297Y544D01*
X416Y544D02*
X421Y544D01*
X437Y544D02*
X463Y544D01*
X480Y544D02*
X502Y544D01*
X524Y544D02*
X550Y544D01*
X566Y544D02*
X571Y544D01*
X579Y544D02*
X584Y544D01*
X591Y544D02*
X596Y544D01*
X613Y544D02*
X637Y544D01*
X678Y544D02*
X683Y544D01*
X697Y544D02*
X702Y544D01*
X705Y544D02*
X721Y544D01*
X750Y544D02*
X761Y544D01*
X785Y544D02*
X790Y544D01*
X809Y544D02*
X814Y544D01*
X94Y543D02*
X106Y543D01*
X138Y543D02*
X167Y543D01*
X182Y543D02*
X210Y543D01*
X269Y543D02*
X298Y543D01*
X416Y543D02*
X421Y543D01*
X436Y543D02*
X462Y543D01*
X481Y543D02*
X501Y543D01*
X523Y543D02*
X549Y543D01*
X566Y543D02*
X571Y543D01*
X579Y543D02*
X584Y543D01*
X591Y543D02*
X596Y543D01*
X614Y543D02*
X636Y543D01*
X678Y543D02*
X683Y543D01*
X697Y543D02*
X702Y543D01*
X707Y543D02*
X720Y543D01*
X750Y543D02*
X761Y543D01*
X785Y543D02*
X790Y543D01*
X809Y543D02*
X814Y543D01*
X94Y542D02*
X105Y542D01*
X139Y542D02*
X166Y542D01*
X183Y542D02*
X210Y542D01*
X270Y542D02*
X298Y542D01*
X416Y542D02*
X421Y542D01*
X436Y542D02*
X461Y542D01*
X482Y542D02*
X500Y542D01*
X523Y542D02*
X548Y542D01*
X566Y542D02*
X571Y542D01*
X579Y542D02*
X584Y542D01*
X591Y542D02*
X596Y542D01*
X615Y542D02*
X635Y542D01*
X678Y542D02*
X683Y542D01*
X697Y542D02*
X702Y542D01*
X709Y542D02*
X718Y542D01*
X751Y542D02*
X760Y542D01*
X785Y542D02*
X790Y542D01*
X809Y542D02*
X814Y542D01*
X95Y541D02*
X105Y541D01*
X140Y541D02*
X165Y541D01*
X183Y541D02*
X209Y541D01*
X270Y541D02*
X298Y541D01*
X310Y541D02*
X336Y541D01*
X417Y541D02*
X421Y541D01*
X436Y541D02*
X459Y541D01*
X483Y541D02*
X499Y541D01*
X523Y541D02*
X547Y541D01*
X566Y541D02*
X571Y541D01*
X579Y541D02*
X584Y541D01*
X591Y541D02*
X596Y541D01*
X616Y541D02*
X634Y541D01*
X678Y541D02*
X683Y541D01*
X697Y541D02*
X702Y541D01*
X751Y541D02*
X757Y541D01*
X785Y541D02*
X789Y541D01*
X809Y541D02*
X813Y541D01*
X95Y540D02*
X105Y540D01*
X141Y540D02*
X164Y540D01*
X185Y540D02*
X208Y540D01*
X272Y540D02*
X297Y540D01*
X310Y540D02*
X337Y540D01*
X417Y540D02*
X421Y540D01*
X437Y540D02*
X458Y540D01*
X484Y540D02*
X498Y540D01*
X524Y540D02*
X545Y540D01*
X567Y540D02*
X570Y540D01*
X580Y540D02*
X583Y540D01*
X592Y540D02*
X595Y540D01*
X617Y540D02*
X632Y540D01*
X679Y540D02*
X682Y540D01*
X697Y540D02*
X702Y540D01*
X752Y540D02*
X757Y540D01*
X785Y540D02*
X789Y540D01*
X809Y540D02*
X813Y540D01*
X98Y539D02*
X102Y539D01*
X144Y539D02*
X161Y539D01*
X188Y539D02*
X205Y539D01*
X275Y539D02*
X295Y539D01*
X313Y539D02*
X334Y539D01*
X439Y539D02*
X454Y539D01*
X488Y539D02*
X494Y539D01*
X526Y539D02*
X541Y539D01*
X621Y539D02*
X628Y539D01*
X697Y539D02*
X702Y539D01*
X752Y539D02*
X758Y539D01*
X697Y538D02*
X702Y538D01*
X753Y538D02*
X758Y538D01*
X697Y537D02*
X703Y537D01*
X753Y537D02*
X759Y537D01*
X697Y536D02*
X703Y536D01*
X753Y536D02*
X759Y536D01*
X698Y535D02*
X703Y535D01*
X754Y535D02*
X760Y535D01*
X698Y534D02*
X705Y534D01*
X754Y534D02*
X760Y534D01*
X698Y533D02*
X706Y533D01*
X755Y533D02*
X761Y533D01*
X699Y532D02*
X722Y532D01*
X755Y532D02*
X768Y532D01*
X700Y531D02*
X723Y531D01*
X756Y531D02*
X769Y531D01*
X701Y530D02*
X723Y530D01*
X756Y530D02*
X770Y530D01*
X702Y529D02*
X724Y529D01*
X757Y529D02*
X770Y529D01*
X703Y528D02*
X723Y528D01*
X757Y528D02*
X770Y528D01*
X705Y527D02*
X723Y527D01*
X758Y527D02*
X769Y527D01*
X142Y524D02*
X165Y524D01*
X205Y524D02*
X208Y524D01*
X279Y524D02*
X295Y524D01*
X748Y524D02*
X768Y524D01*
X140Y523D02*
X165Y523D01*
X204Y523D02*
X208Y523D01*
X279Y523D02*
X296Y523D01*
X745Y523D02*
X768Y523D01*
X139Y522D02*
X165Y522D01*
X204Y522D02*
X209Y522D01*
X279Y522D02*
X296Y522D01*
X498Y522D02*
X498Y522D01*
X744Y522D02*
X768Y522D01*
X138Y521D02*
X165Y521D01*
X204Y521D02*
X209Y521D01*
X279Y521D02*
X296Y521D01*
X496Y521D02*
X500Y521D01*
X743Y521D02*
X768Y521D01*
X137Y520D02*
X165Y520D01*
X204Y520D02*
X209Y520D01*
X279Y520D02*
X296Y520D01*
X496Y520D02*
X501Y520D01*
X742Y520D02*
X768Y520D01*
X137Y519D02*
X165Y519D01*
X204Y519D02*
X209Y519D01*
X279Y519D02*
X295Y519D01*
X496Y519D02*
X501Y519D01*
X741Y519D02*
X768Y519D01*
X137Y518D02*
X143Y518D01*
X160Y518D02*
X165Y518D01*
X204Y518D02*
X209Y518D01*
X279Y518D02*
X284Y518D01*
X496Y518D02*
X501Y518D01*
X741Y518D02*
X748Y518D01*
X763Y518D02*
X768Y518D01*
X136Y517D02*
X142Y517D01*
X160Y517D02*
X165Y517D01*
X204Y517D02*
X209Y517D01*
X279Y517D02*
X284Y517D01*
X496Y517D02*
X501Y517D01*
X740Y517D02*
X747Y517D01*
X763Y517D02*
X768Y517D01*
X136Y516D02*
X141Y516D01*
X160Y516D02*
X165Y516D01*
X204Y516D02*
X209Y516D01*
X279Y516D02*
X284Y516D01*
X496Y516D02*
X501Y516D01*
X740Y516D02*
X746Y516D01*
X763Y516D02*
X768Y516D01*
X136Y515D02*
X141Y515D01*
X160Y515D02*
X165Y515D01*
X204Y515D02*
X209Y515D01*
X279Y515D02*
X284Y515D01*
X496Y515D02*
X501Y515D01*
X739Y515D02*
X745Y515D01*
X763Y515D02*
X768Y515D01*
X136Y514D02*
X141Y514D01*
X160Y514D02*
X165Y514D01*
X204Y514D02*
X209Y514D01*
X279Y514D02*
X284Y514D01*
X496Y514D02*
X501Y514D01*
X739Y514D02*
X745Y514D01*
X763Y514D02*
X768Y514D01*
X136Y513D02*
X141Y513D01*
X160Y513D02*
X165Y513D01*
X204Y513D02*
X209Y513D01*
X279Y513D02*
X284Y513D01*
X321Y513D02*
X322Y513D01*
X496Y513D02*
X501Y513D01*
X739Y513D02*
X744Y513D01*
X763Y513D02*
X768Y513D01*
X136Y512D02*
X141Y512D01*
X160Y512D02*
X165Y512D01*
X204Y512D02*
X209Y512D01*
X279Y512D02*
X284Y512D01*
X321Y512D02*
X322Y512D01*
X495Y512D02*
X501Y512D01*
X739Y512D02*
X744Y512D01*
X763Y512D02*
X768Y512D01*
X99Y511D02*
X115Y511D01*
X136Y511D02*
X141Y511D01*
X160Y511D02*
X165Y511D01*
X186Y511D02*
X195Y511D01*
X204Y511D02*
X209Y511D01*
X279Y511D02*
X284Y511D01*
X321Y511D02*
X322Y511D01*
X396Y511D02*
X407Y511D01*
X416Y511D02*
X418Y511D01*
X442Y511D02*
X456Y511D01*
X482Y511D02*
X506Y511D01*
X529Y511D02*
X543Y511D01*
X570Y511D02*
X574Y511D01*
X581Y511D02*
X586Y511D01*
X590Y511D02*
X593Y511D01*
X616Y511D02*
X630Y511D01*
X657Y511D02*
X668Y511D01*
X677Y511D02*
X680Y511D01*
X702Y511D02*
X718Y511D01*
X739Y511D02*
X744Y511D01*
X763Y511D02*
X768Y511D01*
X97Y510D02*
X115Y510D01*
X136Y510D02*
X141Y510D01*
X160Y510D02*
X165Y510D01*
X184Y510D02*
X197Y510D01*
X204Y510D02*
X209Y510D01*
X279Y510D02*
X284Y510D01*
X321Y510D02*
X322Y510D01*
X394Y510D02*
X408Y510D01*
X415Y510D02*
X419Y510D01*
X440Y510D02*
X457Y510D01*
X481Y510D02*
X506Y510D01*
X527Y510D02*
X544Y510D01*
X568Y510D02*
X576Y510D01*
X580Y510D02*
X588Y510D01*
X590Y510D02*
X594Y510D01*
X614Y510D02*
X632Y510D01*
X656Y510D02*
X669Y510D01*
X676Y510D02*
X681Y510D01*
X700Y510D02*
X718Y510D01*
X739Y510D02*
X744Y510D01*
X763Y510D02*
X768Y510D01*
X96Y509D02*
X116Y509D01*
X136Y509D02*
X141Y509D01*
X160Y509D02*
X165Y509D01*
X183Y509D02*
X199Y509D01*
X204Y509D02*
X209Y509D01*
X279Y509D02*
X284Y509D01*
X321Y509D02*
X322Y509D01*
X393Y509D02*
X409Y509D01*
X415Y509D02*
X420Y509D01*
X439Y509D02*
X458Y509D01*
X481Y509D02*
X507Y509D01*
X526Y509D02*
X546Y509D01*
X567Y509D02*
X594Y509D01*
X613Y509D02*
X633Y509D01*
X655Y509D02*
X670Y509D01*
X676Y509D02*
X681Y509D01*
X699Y509D02*
X719Y509D01*
X739Y509D02*
X744Y509D01*
X763Y509D02*
X768Y509D01*
X95Y508D02*
X116Y508D01*
X136Y508D02*
X141Y508D01*
X160Y508D02*
X165Y508D01*
X182Y508D02*
X201Y508D01*
X204Y508D02*
X209Y508D01*
X279Y508D02*
X284Y508D01*
X321Y508D02*
X322Y508D01*
X392Y508D02*
X410Y508D01*
X414Y508D02*
X420Y508D01*
X438Y508D02*
X460Y508D01*
X481Y508D02*
X507Y508D01*
X525Y508D02*
X547Y508D01*
X566Y508D02*
X594Y508D01*
X612Y508D02*
X634Y508D01*
X654Y508D02*
X672Y508D01*
X676Y508D02*
X681Y508D01*
X698Y508D02*
X719Y508D01*
X739Y508D02*
X745Y508D01*
X763Y508D02*
X768Y508D01*
X94Y507D02*
X115Y507D01*
X136Y507D02*
X141Y507D01*
X160Y507D02*
X165Y507D01*
X182Y507D02*
X209Y507D01*
X279Y507D02*
X284Y507D01*
X321Y507D02*
X322Y507D01*
X392Y507D02*
X411Y507D01*
X414Y507D02*
X420Y507D01*
X437Y507D02*
X461Y507D01*
X481Y507D02*
X506Y507D01*
X524Y507D02*
X548Y507D01*
X566Y507D02*
X594Y507D01*
X611Y507D02*
X635Y507D01*
X653Y507D02*
X673Y507D01*
X676Y507D02*
X681Y507D01*
X697Y507D02*
X718Y507D01*
X740Y507D02*
X745Y507D01*
X763Y507D02*
X768Y507D01*
X94Y506D02*
X114Y506D01*
X136Y506D02*
X141Y506D01*
X160Y506D02*
X165Y506D01*
X181Y506D02*
X209Y506D01*
X279Y506D02*
X284Y506D01*
X321Y506D02*
X322Y506D01*
X391Y506D02*
X412Y506D01*
X414Y506D02*
X420Y506D01*
X436Y506D02*
X461Y506D01*
X482Y506D02*
X505Y506D01*
X523Y506D02*
X549Y506D01*
X565Y506D02*
X594Y506D01*
X610Y506D02*
X636Y506D01*
X653Y506D02*
X674Y506D01*
X676Y506D02*
X681Y506D01*
X697Y506D02*
X717Y506D01*
X740Y506D02*
X746Y506D01*
X763Y506D02*
X768Y506D01*
X94Y505D02*
X100Y505D01*
X136Y505D02*
X141Y505D01*
X160Y505D02*
X165Y505D01*
X181Y505D02*
X187Y505D01*
X195Y505D02*
X209Y505D01*
X279Y505D02*
X284Y505D01*
X321Y505D02*
X322Y505D01*
X391Y505D02*
X397Y505D01*
X405Y505D02*
X420Y505D01*
X435Y505D02*
X442Y505D01*
X455Y505D02*
X462Y505D01*
X496Y505D02*
X501Y505D01*
X522Y505D02*
X530Y505D01*
X542Y505D02*
X549Y505D01*
X565Y505D02*
X571Y505D01*
X573Y505D02*
X582Y505D01*
X586Y505D02*
X594Y505D01*
X609Y505D02*
X617Y505D01*
X629Y505D02*
X636Y505D01*
X652Y505D02*
X658Y505D01*
X667Y505D02*
X681Y505D01*
X697Y505D02*
X703Y505D01*
X740Y505D02*
X747Y505D01*
X763Y505D02*
X768Y505D01*
X93Y504D02*
X99Y504D01*
X136Y504D02*
X141Y504D01*
X160Y504D02*
X165Y504D01*
X181Y504D02*
X186Y504D01*
X196Y504D02*
X209Y504D01*
X279Y504D02*
X284Y504D01*
X321Y504D02*
X322Y504D01*
X391Y504D02*
X396Y504D01*
X406Y504D02*
X420Y504D01*
X435Y504D02*
X441Y504D01*
X456Y504D02*
X462Y504D01*
X496Y504D02*
X501Y504D01*
X522Y504D02*
X528Y504D01*
X543Y504D02*
X550Y504D01*
X565Y504D02*
X570Y504D01*
X575Y504D02*
X582Y504D01*
X587Y504D02*
X594Y504D01*
X609Y504D02*
X615Y504D01*
X630Y504D02*
X637Y504D01*
X652Y504D02*
X657Y504D01*
X668Y504D02*
X681Y504D01*
X696Y504D02*
X702Y504D01*
X741Y504D02*
X768Y504D01*
X93Y503D02*
X99Y503D01*
X136Y503D02*
X142Y503D01*
X160Y503D02*
X165Y503D01*
X181Y503D02*
X186Y503D01*
X198Y503D02*
X209Y503D01*
X279Y503D02*
X284Y503D01*
X321Y503D02*
X322Y503D01*
X390Y503D02*
X396Y503D01*
X407Y503D02*
X420Y503D01*
X434Y503D02*
X440Y503D01*
X457Y503D02*
X463Y503D01*
X496Y503D02*
X501Y503D01*
X521Y503D02*
X527Y503D01*
X544Y503D02*
X550Y503D01*
X565Y503D02*
X570Y503D01*
X576Y503D02*
X582Y503D01*
X588Y503D02*
X594Y503D01*
X609Y503D02*
X614Y503D01*
X631Y503D02*
X637Y503D01*
X652Y503D02*
X657Y503D01*
X669Y503D02*
X681Y503D01*
X696Y503D02*
X702Y503D01*
X742Y503D02*
X768Y503D01*
X93Y502D02*
X98Y502D01*
X137Y502D02*
X143Y502D01*
X160Y502D02*
X165Y502D01*
X180Y502D02*
X186Y502D01*
X200Y502D02*
X209Y502D01*
X279Y502D02*
X284Y502D01*
X321Y502D02*
X322Y502D01*
X390Y502D02*
X396Y502D01*
X409Y502D02*
X420Y502D01*
X434Y502D02*
X439Y502D01*
X458Y502D02*
X463Y502D01*
X496Y502D02*
X501Y502D01*
X521Y502D02*
X527Y502D01*
X545Y502D02*
X550Y502D01*
X565Y502D02*
X570Y502D01*
X577Y502D02*
X582Y502D01*
X589Y502D02*
X594Y502D01*
X609Y502D02*
X614Y502D01*
X632Y502D02*
X637Y502D01*
X652Y502D02*
X657Y502D01*
X670Y502D02*
X681Y502D01*
X696Y502D02*
X701Y502D01*
X742Y502D02*
X768Y502D01*
X93Y501D02*
X98Y501D01*
X137Y501D02*
X165Y501D01*
X180Y501D02*
X186Y501D01*
X201Y501D02*
X209Y501D01*
X279Y501D02*
X284Y501D01*
X321Y501D02*
X322Y501D01*
X390Y501D02*
X396Y501D01*
X410Y501D02*
X420Y501D01*
X434Y501D02*
X439Y501D01*
X458Y501D02*
X463Y501D01*
X496Y501D02*
X501Y501D01*
X521Y501D02*
X526Y501D01*
X545Y501D02*
X550Y501D01*
X565Y501D02*
X570Y501D01*
X577Y501D02*
X582Y501D01*
X589Y501D02*
X594Y501D01*
X608Y501D02*
X614Y501D01*
X632Y501D02*
X638Y501D01*
X652Y501D02*
X657Y501D01*
X671Y501D02*
X681Y501D01*
X696Y501D02*
X701Y501D01*
X743Y501D02*
X768Y501D01*
X93Y500D02*
X98Y500D01*
X137Y500D02*
X165Y500D01*
X180Y500D02*
X186Y500D01*
X203Y500D02*
X209Y500D01*
X279Y500D02*
X284Y500D01*
X321Y500D02*
X323Y500D01*
X391Y500D02*
X395Y500D01*
X411Y500D02*
X420Y500D01*
X434Y500D02*
X439Y500D01*
X458Y500D02*
X463Y500D01*
X496Y500D02*
X501Y500D01*
X521Y500D02*
X526Y500D01*
X545Y500D02*
X550Y500D01*
X565Y500D02*
X570Y500D01*
X577Y500D02*
X582Y500D01*
X589Y500D02*
X594Y500D01*
X608Y500D02*
X614Y500D01*
X632Y500D02*
X638Y500D01*
X652Y500D02*
X657Y500D01*
X673Y500D02*
X681Y500D01*
X696Y500D02*
X701Y500D01*
X742Y500D02*
X768Y500D01*
X93Y499D02*
X98Y499D01*
X138Y499D02*
X165Y499D01*
X180Y499D02*
X185Y499D01*
X204Y499D02*
X209Y499D01*
X279Y499D02*
X284Y499D01*
X308Y499D02*
X335Y499D01*
X391Y499D02*
X395Y499D01*
X412Y499D02*
X420Y499D01*
X434Y499D02*
X439Y499D01*
X458Y499D02*
X463Y499D01*
X496Y499D02*
X501Y499D01*
X521Y499D02*
X526Y499D01*
X545Y499D02*
X550Y499D01*
X565Y499D02*
X570Y499D01*
X577Y499D02*
X582Y499D01*
X589Y499D02*
X594Y499D01*
X608Y499D02*
X614Y499D01*
X632Y499D02*
X638Y499D01*
X653Y499D02*
X656Y499D01*
X674Y499D02*
X681Y499D01*
X696Y499D02*
X701Y499D01*
X742Y499D02*
X768Y499D01*
X93Y498D02*
X117Y498D01*
X139Y498D02*
X165Y498D01*
X180Y498D02*
X185Y498D01*
X204Y498D02*
X209Y498D01*
X268Y498D02*
X271Y498D01*
X279Y498D02*
X284Y498D01*
X308Y498D02*
X335Y498D01*
X413Y498D02*
X420Y498D01*
X434Y498D02*
X439Y498D01*
X458Y498D02*
X463Y498D01*
X496Y498D02*
X501Y498D01*
X521Y498D02*
X526Y498D01*
X545Y498D02*
X550Y498D01*
X565Y498D02*
X570Y498D01*
X577Y498D02*
X582Y498D01*
X589Y498D02*
X594Y498D01*
X608Y498D02*
X614Y498D01*
X632Y498D02*
X638Y498D01*
X675Y498D02*
X681Y498D01*
X696Y498D02*
X720Y498D01*
X741Y498D02*
X768Y498D01*
X93Y497D02*
X118Y497D01*
X140Y497D02*
X165Y497D01*
X180Y497D02*
X185Y497D01*
X204Y497D02*
X209Y497D01*
X267Y497D02*
X272Y497D01*
X279Y497D02*
X284Y497D01*
X321Y497D02*
X322Y497D01*
X414Y497D02*
X420Y497D01*
X434Y497D02*
X439Y497D01*
X458Y497D02*
X463Y497D01*
X496Y497D02*
X501Y497D01*
X521Y497D02*
X526Y497D01*
X545Y497D02*
X550Y497D01*
X565Y497D02*
X570Y497D01*
X577Y497D02*
X582Y497D01*
X589Y497D02*
X594Y497D01*
X608Y497D02*
X614Y497D01*
X632Y497D02*
X638Y497D01*
X676Y497D02*
X681Y497D01*
X696Y497D02*
X721Y497D01*
X740Y497D02*
X747Y497D01*
X763Y497D02*
X768Y497D01*
X93Y496D02*
X119Y496D01*
X142Y496D02*
X165Y496D01*
X180Y496D02*
X185Y496D01*
X204Y496D02*
X209Y496D01*
X267Y496D02*
X272Y496D01*
X279Y496D02*
X284Y496D01*
X321Y496D02*
X322Y496D01*
X414Y496D02*
X420Y496D01*
X434Y496D02*
X463Y496D01*
X496Y496D02*
X501Y496D01*
X521Y496D02*
X550Y496D01*
X565Y496D02*
X570Y496D01*
X577Y496D02*
X582Y496D01*
X589Y496D02*
X594Y496D01*
X608Y496D02*
X614Y496D01*
X632Y496D02*
X638Y496D01*
X676Y496D02*
X681Y496D01*
X696Y496D02*
X722Y496D01*
X740Y496D02*
X746Y496D01*
X763Y496D02*
X768Y496D01*
X93Y495D02*
X120Y495D01*
X160Y495D02*
X165Y495D01*
X180Y495D02*
X185Y495D01*
X204Y495D02*
X209Y495D01*
X267Y495D02*
X272Y495D01*
X279Y495D02*
X284Y495D01*
X321Y495D02*
X322Y495D01*
X414Y495D02*
X420Y495D01*
X434Y495D02*
X463Y495D01*
X496Y495D02*
X501Y495D01*
X521Y495D02*
X550Y495D01*
X565Y495D02*
X570Y495D01*
X577Y495D02*
X582Y495D01*
X589Y495D02*
X594Y495D01*
X608Y495D02*
X614Y495D01*
X632Y495D02*
X638Y495D01*
X676Y495D02*
X681Y495D01*
X696Y495D02*
X723Y495D01*
X740Y495D02*
X745Y495D01*
X763Y495D02*
X768Y495D01*
X93Y494D02*
X121Y494D01*
X160Y494D02*
X165Y494D01*
X180Y494D02*
X185Y494D01*
X204Y494D02*
X209Y494D01*
X267Y494D02*
X272Y494D01*
X279Y494D02*
X284Y494D01*
X321Y494D02*
X322Y494D01*
X414Y494D02*
X420Y494D01*
X434Y494D02*
X463Y494D01*
X496Y494D02*
X501Y494D01*
X521Y494D02*
X550Y494D01*
X565Y494D02*
X570Y494D01*
X577Y494D02*
X582Y494D01*
X589Y494D02*
X594Y494D01*
X608Y494D02*
X614Y494D01*
X632Y494D02*
X638Y494D01*
X676Y494D02*
X681Y494D01*
X696Y494D02*
X724Y494D01*
X739Y494D02*
X745Y494D01*
X763Y494D02*
X768Y494D01*
X93Y493D02*
X121Y493D01*
X160Y493D02*
X165Y493D01*
X180Y493D02*
X185Y493D01*
X204Y493D02*
X209Y493D01*
X267Y493D02*
X272Y493D01*
X279Y493D02*
X284Y493D01*
X321Y493D02*
X322Y493D01*
X414Y493D02*
X420Y493D01*
X434Y493D02*
X463Y493D01*
X496Y493D02*
X501Y493D01*
X521Y493D02*
X550Y493D01*
X565Y493D02*
X570Y493D01*
X577Y493D02*
X582Y493D01*
X589Y493D02*
X594Y493D01*
X608Y493D02*
X614Y493D01*
X632Y493D02*
X638Y493D01*
X676Y493D02*
X681Y493D01*
X696Y493D02*
X724Y493D01*
X739Y493D02*
X744Y493D01*
X763Y493D02*
X768Y493D01*
X93Y492D02*
X99Y492D01*
X116Y492D02*
X121Y492D01*
X160Y492D02*
X165Y492D01*
X180Y492D02*
X185Y492D01*
X204Y492D02*
X209Y492D01*
X267Y492D02*
X272Y492D01*
X279Y492D02*
X284Y492D01*
X321Y492D02*
X322Y492D01*
X414Y492D02*
X420Y492D01*
X434Y492D02*
X463Y492D01*
X496Y492D02*
X501Y492D01*
X522Y492D02*
X550Y492D01*
X565Y492D02*
X570Y492D01*
X577Y492D02*
X582Y492D01*
X589Y492D02*
X594Y492D01*
X608Y492D02*
X614Y492D01*
X632Y492D02*
X638Y492D01*
X676Y492D02*
X681Y492D01*
X696Y492D02*
X702Y492D01*
X719Y492D02*
X724Y492D01*
X739Y492D02*
X744Y492D01*
X763Y492D02*
X768Y492D01*
X93Y491D02*
X98Y491D01*
X116Y491D02*
X122Y491D01*
X160Y491D02*
X165Y491D01*
X180Y491D02*
X185Y491D01*
X204Y491D02*
X209Y491D01*
X267Y491D02*
X272Y491D01*
X279Y491D02*
X284Y491D01*
X321Y491D02*
X322Y491D01*
X414Y491D02*
X420Y491D01*
X435Y491D02*
X463Y491D01*
X496Y491D02*
X501Y491D01*
X522Y491D02*
X550Y491D01*
X565Y491D02*
X570Y491D01*
X577Y491D02*
X582Y491D01*
X589Y491D02*
X594Y491D01*
X608Y491D02*
X614Y491D01*
X632Y491D02*
X638Y491D01*
X676Y491D02*
X681Y491D01*
X696Y491D02*
X701Y491D01*
X719Y491D02*
X725Y491D01*
X739Y491D02*
X744Y491D01*
X763Y491D02*
X768Y491D01*
X93Y490D02*
X98Y490D01*
X117Y490D02*
X122Y490D01*
X160Y490D02*
X165Y490D01*
X180Y490D02*
X185Y490D01*
X204Y490D02*
X209Y490D01*
X267Y490D02*
X272Y490D01*
X279Y490D02*
X284Y490D01*
X321Y490D02*
X322Y490D01*
X414Y490D02*
X420Y490D01*
X458Y490D02*
X463Y490D01*
X496Y490D02*
X501Y490D01*
X545Y490D02*
X550Y490D01*
X565Y490D02*
X570Y490D01*
X577Y490D02*
X582Y490D01*
X589Y490D02*
X594Y490D01*
X608Y490D02*
X614Y490D01*
X632Y490D02*
X638Y490D01*
X676Y490D02*
X681Y490D01*
X696Y490D02*
X701Y490D01*
X720Y490D02*
X725Y490D01*
X739Y490D02*
X744Y490D01*
X763Y490D02*
X768Y490D01*
X93Y489D02*
X98Y489D01*
X117Y489D02*
X122Y489D01*
X160Y489D02*
X165Y489D01*
X180Y489D02*
X185Y489D01*
X204Y489D02*
X209Y489D01*
X267Y489D02*
X272Y489D01*
X279Y489D02*
X284Y489D01*
X321Y489D02*
X322Y489D01*
X414Y489D02*
X420Y489D01*
X458Y489D02*
X463Y489D01*
X496Y489D02*
X501Y489D01*
X545Y489D02*
X550Y489D01*
X565Y489D02*
X570Y489D01*
X577Y489D02*
X582Y489D01*
X589Y489D02*
X594Y489D01*
X608Y489D02*
X614Y489D01*
X632Y489D02*
X638Y489D01*
X676Y489D02*
X681Y489D01*
X696Y489D02*
X701Y489D01*
X720Y489D02*
X725Y489D01*
X739Y489D02*
X744Y489D01*
X763Y489D02*
X768Y489D01*
X93Y488D02*
X98Y488D01*
X117Y488D02*
X122Y488D01*
X160Y488D02*
X165Y488D01*
X180Y488D02*
X185Y488D01*
X204Y488D02*
X209Y488D01*
X267Y488D02*
X272Y488D01*
X279Y488D02*
X284Y488D01*
X321Y488D02*
X322Y488D01*
X414Y488D02*
X420Y488D01*
X458Y488D02*
X463Y488D01*
X479Y488D02*
X481Y488D01*
X496Y488D02*
X501Y488D01*
X545Y488D02*
X550Y488D01*
X565Y488D02*
X570Y488D01*
X577Y488D02*
X582Y488D01*
X589Y488D02*
X594Y488D01*
X608Y488D02*
X614Y488D01*
X632Y488D02*
X637Y488D01*
X676Y488D02*
X681Y488D01*
X696Y488D02*
X701Y488D01*
X720Y488D02*
X725Y488D01*
X739Y488D02*
X745Y488D01*
X763Y488D02*
X768Y488D01*
X93Y487D02*
X99Y487D01*
X117Y487D02*
X122Y487D01*
X160Y487D02*
X165Y487D01*
X180Y487D02*
X185Y487D01*
X204Y487D02*
X209Y487D01*
X267Y487D02*
X272Y487D01*
X279Y487D02*
X284Y487D01*
X321Y487D02*
X322Y487D01*
X414Y487D02*
X420Y487D01*
X458Y487D02*
X463Y487D01*
X478Y487D02*
X482Y487D01*
X496Y487D02*
X501Y487D01*
X545Y487D02*
X550Y487D01*
X565Y487D02*
X570Y487D01*
X577Y487D02*
X582Y487D01*
X589Y487D02*
X594Y487D01*
X608Y487D02*
X614Y487D01*
X632Y487D02*
X637Y487D01*
X676Y487D02*
X681Y487D01*
X696Y487D02*
X702Y487D01*
X720Y487D02*
X725Y487D01*
X739Y487D02*
X745Y487D01*
X763Y487D02*
X768Y487D01*
X93Y486D02*
X100Y486D01*
X116Y486D02*
X122Y486D01*
X160Y486D02*
X165Y486D01*
X180Y486D02*
X185Y486D01*
X204Y486D02*
X209Y486D01*
X267Y486D02*
X272Y486D01*
X279Y486D02*
X284Y486D01*
X321Y486D02*
X322Y486D01*
X414Y486D02*
X420Y486D01*
X457Y486D02*
X463Y486D01*
X478Y486D02*
X483Y486D01*
X496Y486D02*
X501Y486D01*
X544Y486D02*
X550Y486D01*
X565Y486D02*
X570Y486D01*
X577Y486D02*
X582Y486D01*
X589Y486D02*
X594Y486D01*
X609Y486D02*
X615Y486D01*
X631Y486D02*
X637Y486D01*
X676Y486D02*
X681Y486D01*
X696Y486D02*
X703Y486D01*
X720Y486D02*
X725Y486D01*
X740Y486D02*
X746Y486D01*
X763Y486D02*
X768Y486D01*
X93Y485D02*
X102Y485D01*
X116Y485D02*
X122Y485D01*
X160Y485D02*
X165Y485D01*
X180Y485D02*
X185Y485D01*
X204Y485D02*
X209Y485D01*
X267Y485D02*
X272Y485D01*
X279Y485D02*
X284Y485D01*
X321Y485D02*
X322Y485D01*
X414Y485D02*
X420Y485D01*
X456Y485D02*
X463Y485D01*
X478Y485D02*
X483Y485D01*
X495Y485D02*
X501Y485D01*
X543Y485D02*
X550Y485D01*
X565Y485D02*
X570Y485D01*
X577Y485D02*
X582Y485D01*
X589Y485D02*
X594Y485D01*
X609Y485D02*
X616Y485D01*
X630Y485D02*
X637Y485D01*
X676Y485D02*
X681Y485D01*
X696Y485D02*
X705Y485D01*
X719Y485D02*
X725Y485D01*
X740Y485D02*
X747Y485D01*
X763Y485D02*
X768Y485D01*
X93Y484D02*
X104Y484D01*
X115Y484D02*
X121Y484D01*
X160Y484D02*
X165Y484D01*
X180Y484D02*
X185Y484D01*
X204Y484D02*
X209Y484D01*
X267Y484D02*
X272Y484D01*
X279Y484D02*
X284Y484D01*
X321Y484D02*
X322Y484D01*
X414Y484D02*
X420Y484D01*
X454Y484D02*
X462Y484D01*
X478Y484D02*
X484Y484D01*
X494Y484D02*
X500Y484D01*
X542Y484D02*
X549Y484D01*
X565Y484D02*
X570Y484D01*
X577Y484D02*
X582Y484D01*
X589Y484D02*
X594Y484D01*
X610Y484D02*
X617Y484D01*
X629Y484D02*
X636Y484D01*
X676Y484D02*
X681Y484D01*
X696Y484D02*
X707Y484D01*
X718Y484D02*
X724Y484D01*
X741Y484D02*
X748Y484D01*
X763Y484D02*
X768Y484D01*
X93Y483D02*
X121Y483D01*
X160Y483D02*
X165Y483D01*
X180Y483D02*
X185Y483D01*
X204Y483D02*
X209Y483D01*
X267Y483D02*
X295Y483D01*
X414Y483D02*
X420Y483D01*
X436Y483D02*
X461Y483D01*
X478Y483D02*
X500Y483D01*
X523Y483D02*
X549Y483D01*
X564Y483D02*
X570Y483D01*
X577Y483D02*
X582Y483D01*
X589Y483D02*
X594Y483D01*
X610Y483D02*
X636Y483D01*
X676Y483D02*
X681Y483D01*
X696Y483D02*
X724Y483D01*
X741Y483D02*
X768Y483D01*
X93Y482D02*
X120Y482D01*
X160Y482D02*
X165Y482D01*
X180Y482D02*
X185Y482D01*
X204Y482D02*
X209Y482D01*
X267Y482D02*
X296Y482D01*
X414Y482D02*
X420Y482D01*
X435Y482D02*
X461Y482D01*
X479Y482D02*
X500Y482D01*
X522Y482D02*
X548Y482D01*
X564Y482D02*
X570Y482D01*
X577Y482D02*
X582Y482D01*
X589Y482D02*
X594Y482D01*
X611Y482D02*
X635Y482D01*
X676Y482D02*
X681Y482D01*
X696Y482D02*
X724Y482D01*
X742Y482D02*
X768Y482D01*
X93Y481D02*
X120Y481D01*
X160Y481D02*
X165Y481D01*
X180Y481D02*
X185Y481D01*
X204Y481D02*
X209Y481D01*
X267Y481D02*
X296Y481D01*
X414Y481D02*
X420Y481D01*
X434Y481D02*
X460Y481D01*
X480Y481D02*
X499Y481D01*
X521Y481D02*
X547Y481D01*
X564Y481D02*
X570Y481D01*
X577Y481D02*
X582Y481D01*
X589Y481D02*
X594Y481D01*
X612Y481D02*
X634Y481D01*
X676Y481D02*
X681Y481D01*
X696Y481D02*
X723Y481D01*
X743Y481D02*
X768Y481D01*
X93Y480D02*
X119Y480D01*
X160Y480D02*
X165Y480D01*
X180Y480D02*
X185Y480D01*
X204Y480D02*
X209Y480D01*
X267Y480D02*
X296Y480D01*
X415Y480D02*
X419Y480D01*
X434Y480D02*
X458Y480D01*
X480Y480D02*
X498Y480D01*
X521Y480D02*
X546Y480D01*
X564Y480D02*
X569Y480D01*
X577Y480D02*
X582Y480D01*
X589Y480D02*
X594Y480D01*
X613Y480D02*
X633Y480D01*
X676Y480D02*
X681Y480D01*
X696Y480D02*
X722Y480D01*
X744Y480D02*
X768Y480D01*
X93Y479D02*
X97Y479D01*
X101Y479D02*
X118Y479D01*
X161Y479D02*
X165Y479D01*
X180Y479D02*
X184Y479D01*
X204Y479D02*
X208Y479D01*
X267Y479D02*
X296Y479D01*
X308Y479D02*
X335Y479D01*
X415Y479D02*
X419Y479D01*
X434Y479D02*
X457Y479D01*
X482Y479D02*
X497Y479D01*
X522Y479D02*
X544Y479D01*
X565Y479D02*
X569Y479D01*
X577Y479D02*
X582Y479D01*
X590Y479D02*
X594Y479D01*
X615Y479D02*
X631Y479D01*
X676Y479D02*
X681Y479D01*
X696Y479D02*
X700Y479D01*
X704Y479D02*
X721Y479D01*
X745Y479D02*
X768Y479D01*
X94Y478D02*
X96Y478D01*
X103Y478D02*
X116Y478D01*
X161Y478D02*
X164Y478D01*
X181Y478D02*
X184Y478D01*
X205Y478D02*
X208Y478D01*
X268Y478D02*
X295Y478D01*
X308Y478D02*
X335Y478D01*
X416Y478D02*
X418Y478D01*
X435Y478D02*
X455Y478D01*
X483Y478D02*
X495Y478D01*
X523Y478D02*
X542Y478D01*
X566Y478D02*
X568Y478D01*
X578Y478D02*
X581Y478D01*
X591Y478D02*
X593Y478D01*
X616Y478D02*
X630Y478D01*
X677Y478D02*
X680Y478D01*
X697Y478D02*
X699Y478D01*
X706Y478D02*
X719Y478D01*
X748Y478D02*
X768Y478D01*
D02*
G04 End of Silk0*
M02*